<?xml version="1.0" encoding="UTF-8"?>
<svg id="Layer_2" xmlns="http://www.w3.org/2000/svg" viewBox="0 0 141.09 65.55">
  <defs>
    <style>
      .cls-1 {
        fill: none;
      }

      .cls-2 {
        fill: #fef5e3;
      }

      .cls-3 {
        fill: #231f20;
      }

      .cls-4 {
        fill: #f8f0e2;
      }

      .cls-5 {
        fill: #5f3b19;
      }

      .cls-6 {
        fill: #4c3014;
      }

      .cls-7 {
        fill: #fdd8b1;
      }

      .cls-8 {
        fill: #fcf6e6;
      }

      .cls-9 {
        fill: #6b5439;
      }

      .cls-10 {
        fill: #f9e9c7;
      }

      .cls-11 {
        fill: #fed8b2;
      }

      .cls-12 {
        fill: #f0dfb8;
      }

      .cls-13 {
        fill: #f6e9db;
      }

      .cls-14 {
        fill: #f2e0cd;
      }

      .cls-15 {
        fill: #f8e8c6;
      }
    </style>
  </defs>
  <g id="Layer_1-2" data-name="Layer_1">
    <g>
      <path class="cls-7" d="M14.33,41.9c.17.67.34,1.34.51,2.01.56.48,1.11.97,1.67,1.45-.35-.9-.7-1.8-1.17-3.01h45.73c.47,2.42-2.07,3.56-2.54,5.51.37-.15.74-.31,1.1-.46.89-1.33,1.77-2.66,2.66-4,0-1.15.9-2.1,1.08-3.22.11-.72-.36-1.6,0-2.28.4-2.15,1.7-4.22.71-6.61-.4-.12-.81-.34-1.22-.35-8.03-.03-16.06-.03-24.08-.03-5.19,0-10.38-.06-15.56.02-3.84.06-7.68.32-11.52.49.52,2,1.05,4,1.57,6"/>
      <path class="cls-5" d="M62.23,42.35H15.11c.49,1.21.85,2.11,1.21,3.01,1.9,1.88,3.75,3.8,5.73,5.61,1.75,1.6,3.91,2.16,6.45,2.12,7.02-.12,14.05-.07,21.07,0,2,.02,3.8-.29,5.34-1.5,1.58-1.24,3.14-2.48,4.71-3.73.48-1.95,3.1-3.08,2.62-5.51Z"/>
      <path class="cls-14" d="M10.73,34.92s0,.02,0,.03c0,0,0,0,0,.01v-.04Z"/>
      <path class="cls-10" d="M66.14,26.91c.03-1.15-.87-3.32-1.22-4.48-17.67,0-37.63-.02-55.3-.02-.01,1.03.02,2.07-.04,3.1-.13,1.97-.31,3.94-.46,5.91,3.89-.17,7.79-.43,11.68-.49,5.26-.09,10.52-.02,15.79-.02,8.14,0,16.29,0,24.43.03.41,0,3.13.23,3.54.35"/>
      <path class="cls-15" d="M59.46,18.09c.51-.41.93-.74,1.43-1.15-1.01-.86-1.87-1.6-2.68-2.29-1.45-.33-2.85-.66-4.38-1.01-1.67-5.23-5.89-5.73-9.94-5.74-4.14,0-8.03,1.38-10.13,6-3.6-.48-6.94.26-10.46-.93-3.4-1.15-6.67.87-9.31,4.06.92.38,1.67.69,2.41.99,14.03,1.1,29.01,2.17,43.05.07Z"/>
      <path class="cls-8" d="M16.76,17.62c-.74-.28-1.48-.56-2.41-.9,2.59-2.84,5.78-4.63,9.11-3.61,3.44,1.06,6.7.4,10.23.83,2.05-4.11,5.85-5.34,9.9-5.33,3.95,0,8.08.45,9.72,5.1,1.49.31,2.86.6,4.28.9.8.62,1.64,1.27,2.62,2.04-.59.43-1.04.76-1.7,1.24h4.27c-1.45-1.55-2.91-3.1-4.36-4.65-.12.19-.23.38-.35.57-1.35-.5-3.24-.61-3.94-1.57-1.76-2.44-4.05-3.81-6.72-4.81-6.98-.03-7.66-.45-10.64,1.76-.25.18-.51.39-.8.61-.85.67-1.9,1.52-3.26,2.59-2.21,0-4.61.38-6.84-.09-3.77-.79-7.22-.39-10.81,1.6-.82,1.16-1.81,2.58-2.81,3.99h4.5c0-.09,0-.18,0-.27Z"/>
      <g>
        <path class="cls-2" d="M25.72,54.77h24.5c0-.08.02-.16.02-.24h-24.52c0,.08,0,.16,0,.24Z"/>
        <path class="cls-4" d="M10.74,34.96s0-.01,0-.02v.04s0-.01,0-.02Z"/>
        <path class="cls-14" d="M11.54,29c-.57-1.69-.49-4.27-.49-6.58h2.21c16.35,0,32.69,0,49.04,0h2.11c-.19,2.64.18,5.15-.08,7.5-.45,4.09-1.35,7.9-3.05,11.63-.97,2.13-1.47,4.07-2.73,6.07-.04.06-.47.72-.74.65-.35.15-1.09.84-1.43.99-1.43,1.24-2.49,1.1-3.92,2.34-1.4,1.21-3.04,1.52-4.86,1.5-6.39-.06-12.79-.11-19.18,0-2.32.04-4.28-.52-5.88-2.12-1.8-1.81-3.48-3.73-5.21-5.61-.52-.48-1.04-.97-1.56-1.45M10.74,34.97s0,0,0-.01c1.53,7.99,5.33,14.58,12.13,19.21,1.09.74,2.59,1.23,3.91,1.25,7.4.12,14.81.08,22.21.02,1.04,0,2.29-.15,3.07-.74,2.18-1.63,4.43-3.29,6.17-5.34,6.33-7.47,8.15-16.53,8.54-26,.03-.73-.43-1.47-.64-2.17H9.32c-.63,4.74-.1,9.28,1.41,13.76M50.22,54.77h-24.5c0-.08,0-.16,0-.24h24.52c0,.08-.02.16-.02.24Z"/>
        <path class="cls-10" d="M65.13,43.01c.53-.23,1.03-.5,1.51-.8,3.38-2.08,5.69-5.65,6.47-9.91-.37-.56-.81-1.24-1.29-1.97-.25-.03-.5-.07-.75-.1-.74-.1-1.49-.19-2.34-.31-.54,1.95-1.06,3.86-1.59,5.78-.66,2.38-1.32,4.78-2.01,7.3ZM71.59,30.92v4.99c-1.2,1.45-2.79,3.37-4.38,5.29-.19-.1-.37-.21-.56-.31.78-3.16,1.56-6.32,2.43-9.81.89-.06,1.6-.11,2.51-.17Z"/>
        <path class="cls-15" d="M16.81,17.91h-4.5l-4.99.02c-.45.58-.9,1.16-1.59,2.05.18,2.45.37,5.19.57,7.93h0c.19,0,.38-.02.57-.02v-8.84c20.74-.2,41.06-.15,61.78-.02v8.32c.97.24,1.58.42,2.21.53,3.11.56,4.59,2.56,4.18,5.66-.6,4.54-3.38,7.67-6.77,10.35-1.36,1.07-3,1.78-4.41,2.8-.82.59-1.44,1.45-2.14,2.19.2.01.39.02.59.04h0c1.01-.61,2.03-1.2,3.02-1.85,4.44-2.89,8.38-6.13,10.23-11.45,1.49-4.28.35-6.98-4.05-8.4-.44-.14-.81-.53-1.21-.8-.24-2.3-.47-4.61-.75-7.31-.21-.2-.73-.69-1.24-1.18-1.83,0-3.66-.02-5.49-.02h-4.27"/>
        <path class="cls-13" d="M61.7,48.89c-2.62,3.01-5.21,6.09-8.92,7.83-1.16.54-2.49,1.01-3.74,1.03-7.49.1-14.99.08-22.48.03-3.73-.03-6.31-2.47-8.73-4.8-5.33-5.11-8.18-11.6-9.67-18.75-.44-2.11-.87-4.22-1.31-6.33-.19,0-.38.02-.57.02-.05,2.7.63,5.24,1.27,7.85.83,3.39,1.9,6.53,3.51,9.67,2.04,3.98,4.65,7.31,8.02,10.16,2.69,2.27,5.64,3.45,9.24,3.37,6.32-.14,12.65-.1,18.97-.02,5.49.06,9.13-2.6,12.15-6.19.5-.6.99-1.22,1.46-1.86.47-.64.94-1.3,1.4-1.97-.2-.01-.39-.02-.59-.04Z"/>
        <rect class="cls-1" x="2.69" width="74.27" height="65.55"/>
        <path class="cls-9" d="M17.82,52.97c2.43,2.33,5,4.78,8.73,4.8,7.49.05,14.99.06,22.48-.03,1.26-.02,2.58-.49,3.74-1.03,3.71-1.74,6.3-4.81,8.92-7.83.71-.74,1.33-1.61,2.14-2.19,1.41-1.01,3.05-1.72,4.41-2.8,3.39-2.68,6.17-5.81,6.77-10.35.41-3.1-1.07-5.11-4.18-5.66-.62-.11-1.23-.3-2.21-.53v-8.32c-20.72-.12-41.04-.18-61.78.02v8.84c.44,2.11.87,4.22,1.31,6.33,1.48,7.15,4.33,13.64,9.67,18.75ZM58.23,49.36c-1.74,2.06-3.99,3.72-6.17,5.34-.78.58-2.03.73-3.07.74-7.4.06-14.81.1-22.21-.02-1.32-.02-2.82-.51-3.91-1.25-6.8-4.63-10.6-11.22-12.13-19.21-1.51-4.48-2.04-9.03-1.41-13.76h56.81c.22.69.67,1.44.64,2.17-.39,9.47-2.22,18.52-8.54,26ZM68.74,29.92h0c.85.11,1.6.21,2.34.31.25.03.5.06.75.1.48.74.93,1.41,1.29,1.97h0c-.78,4.26-3.09,7.83-6.47,9.91-.48.3-.99.56-1.51.8.69-2.52,1.35-4.92,2.01-7.3.53-1.92,1.05-3.83,1.59-5.78ZM68.36,20.03v8.97c-1.33-2.67.09-5.63-1.02-8.44H8.34c-.02-.18-.04-.36-.06-.53h60.08Z"/>
        <path class="cls-6" d="M67.35,20.56c1.1,2.81-.32,5.76,1.02,8.44v-8.97H8.28c.02.18.04.36.06.53h59.01Z"/>
      </g>
      <g>
        <rect class="cls-1" width="141.09" height="65.55"/>
        <g>
          <circle class="cls-5" cx="88.08" cy="37.09" r="1.75"/>
          <g>
            <path class="cls-3" d="M95.06,37.29h-1.57v1.46h1.75v.44h-2.27v-4.04h2.18v.44h-1.66v1.28h1.57v.43Z"/>
            <path class="cls-3" d="M95.85,38.55c.23.14.58.26.94.26.53,0,.85-.28.85-.69,0-.38-.22-.59-.76-.8-.66-.23-1.07-.58-1.07-1.15,0-.63.52-1.1,1.31-1.1.41,0,.71.1.89.2l-.14.43c-.13-.07-.4-.19-.77-.19-.55,0-.76.33-.76.61,0,.38.25.56.8.78.68.26,1.03.59,1.03,1.19,0,.62-.46,1.16-1.42,1.16-.39,0-.82-.11-1.03-.26l.13-.44Z"/>
            <path class="cls-3" d="M98.88,35.19c.25-.04.58-.08,1-.08.52,0,.89.12,1.13.34.22.19.35.49.35.85s-.11.65-.31.86c-.28.29-.73.44-1.23.44-.16,0-.3,0-.42-.04v1.62h-.52v-3.99ZM99.4,37.14c.11.03.26.04.43.04.63,0,1.01-.31,1.01-.86s-.38-.79-.95-.79c-.23,0-.4.02-.49.04v1.57Z"/>
            <path class="cls-3" d="M102.07,35.2c.26-.05.64-.08,1-.08.56,0,.92.1,1.17.33.2.18.32.46.32.77,0,.53-.34.89-.76,1.03v.02c.31.11.5.4.59.82.13.56.23.95.31,1.11h-.54c-.07-.11-.16-.46-.27-.97-.12-.56-.34-.77-.81-.79h-.49v1.75h-.52v-3.99ZM102.59,37.04h.53c.56,0,.91-.31.91-.77,0-.52-.38-.75-.93-.76-.25,0-.43.02-.52.05v1.48Z"/>
            <path class="cls-3" d="M107.39,37.29h-1.57v1.46h1.75v.44h-2.27v-4.04h2.18v.44h-1.66v1.28h1.57v.43Z"/>
            <path class="cls-3" d="M108.18,38.55c.23.14.58.26.94.26.53,0,.85-.28.85-.69,0-.38-.22-.59-.76-.8-.66-.23-1.07-.58-1.07-1.15,0-.63.52-1.1,1.31-1.1.41,0,.71.1.89.2l-.14.43c-.13-.07-.4-.19-.77-.19-.55,0-.76.33-.76.61,0,.38.25.56.8.78.68.26,1.03.59,1.03,1.19,0,.62-.46,1.16-1.42,1.16-.39,0-.82-.11-1.03-.26l.13-.44Z"/>
            <path class="cls-3" d="M111.14,38.55c.23.14.58.26.94.26.53,0,.85-.28.85-.69,0-.38-.22-.59-.76-.8-.66-.23-1.07-.58-1.07-1.15,0-.63.52-1.1,1.31-1.1.41,0,.71.1.89.2l-.14.43c-.13-.07-.4-.19-.77-.19-.55,0-.76.33-.76.61,0,.38.25.56.8.78.68.26,1.03.59,1.03,1.19,0,.62-.46,1.16-1.42,1.16-.39,0-.82-.11-1.03-.26l.13-.44Z"/>
            <path class="cls-3" d="M117.62,37.13c0,1.39-.85,2.13-1.88,2.13s-1.82-.83-1.82-2.05c0-1.28.8-2.12,1.88-2.12s1.82.85,1.82,2.04ZM114.49,37.19c0,.86.47,1.64,1.29,1.64s1.3-.76,1.3-1.68c0-.8-.42-1.64-1.29-1.64s-1.3.8-1.3,1.69Z"/>
          </g>
        </g>
        <g>
          <circle class="cls-11" cx="88.08" cy="30.42" r="1.75"/>
          <g>
            <path class="cls-3" d="M92.9,31.88c.23.14.58.26.94.26.53,0,.85-.28.85-.69,0-.38-.22-.59-.76-.8-.66-.23-1.07-.58-1.07-1.15,0-.63.52-1.1,1.31-1.1.41,0,.71.1.89.2l-.14.43c-.13-.07-.4-.19-.77-.19-.55,0-.76.33-.76.61,0,.38.25.56.8.78.68.26,1.03.59,1.03,1.19,0,.62-.46,1.16-1.42,1.16-.39,0-.82-.11-1.03-.26l.13-.44Z"/>
            <path class="cls-3" d="M96.7,28.92h-1.23v-.44h2.99v.44h-1.24v3.6h-.53v-3.6Z"/>
            <path class="cls-3" d="M101,30.62h-1.57v1.46h1.75v.44h-2.27v-4.04h2.18v.44h-1.66v1.28h1.57v.43Z"/>
            <path class="cls-3" d="M102.52,31.24l-.42,1.27h-.54l1.37-4.04h.63l1.38,4.04h-.56l-.43-1.27h-1.43ZM103.84,30.84l-.4-1.16c-.09-.26-.15-.5-.21-.74h-.01c-.06.24-.13.49-.2.73l-.4,1.17h1.22Z"/>
            <path class="cls-3" d="M108.92,30.74c-.03-.56-.07-1.24-.06-1.75h-.02c-.14.47-.31.98-.51,1.54l-.71,1.96h-.4l-.65-1.92c-.19-.57-.35-1.09-.47-1.57h-.01c-.01.5-.04,1.18-.08,1.79l-.11,1.73h-.5l.28-4.04h.67l.69,1.96c.17.5.31.94.41,1.36h.02c.1-.41.25-.85.43-1.36l.72-1.96h.67l.25,4.04h-.51l-.1-1.77Z"/>
            <path class="cls-3" d="M112.43,30.62h-1.57v1.46h1.75v.44h-2.27v-4.04h2.18v.44h-1.66v1.28h1.57v.43Z"/>
            <path class="cls-3" d="M113.29,28.53c.32-.05.7-.08,1.11-.08.75,0,1.28.17,1.64.5.36.33.57.8.57,1.45s-.2,1.2-.58,1.57c-.38.38-1,.58-1.79.58-.37,0-.68-.02-.95-.05v-3.98ZM113.81,32.1c.13.02.32.03.53.03,1.12,0,1.72-.62,1.72-1.71,0-.95-.53-1.56-1.64-1.56-.27,0-.47.02-.61.05v3.19Z"/>
            <path class="cls-3" d="M121.96,30.74c-.03-.56-.07-1.24-.06-1.75h-.02c-.14.47-.31.98-.51,1.54l-.71,1.96h-.4l-.65-1.92c-.19-.57-.35-1.09-.47-1.57h-.01c-.01.5-.04,1.18-.08,1.79l-.11,1.73h-.5l.28-4.04h.67l.69,1.96c.17.5.31.94.41,1.36h.02c.1-.41.25-.85.43-1.36l.72-1.96h.67l.25,4.04h-.51l-.1-1.77Z"/>
            <path class="cls-3" d="M123.9,28.47v4.04h-.52v-4.04h.52Z"/>
            <path class="cls-3" d="M124.81,28.47h.52v3.6h1.73v.44h-2.25v-4.04Z"/>
            <path class="cls-3" d="M127.64,28.47h.52v1.95h.02c.11-.16.22-.3.32-.43l1.24-1.52h.65l-1.46,1.72,1.58,2.33h-.62l-1.33-1.98-.38.44v1.54h-.52v-4.04Z"/>
          </g>
        </g>
        <g>
          <circle class="cls-12" cx="88.08" cy="23.75" r="1.75"/>
          <g>
            <path class="cls-3" d="M96.06,24.08c-.03-.55-.06-1.21-.06-1.7h-.02c-.12.46-.27.96-.45,1.5l-.65,1.94h-.36l-.6-1.89c-.17-.55-.32-1.07-.42-1.54h-.02c0,.5-.04,1.14-.07,1.73l-.1,1.73h-.47l.27-4.04h.62l.62,1.92c.16.51.28.94.38,1.37h.02c.1-.42.22-.85.39-1.37l.64-1.92h.62l.24,4.04h-.49l-.09-1.76Z"/>
            <path class="cls-3" d="M97.9,21.8v4.04h-.51v-4.04h.51Z"/>
            <path class="cls-3" d="M98.76,21.8h.51v3.62h1.55v.43h-2.06v-4.04Z"/>
            <path class="cls-3" d="M101.36,21.8h.5v1.94h.02c.1-.16.2-.31.3-.45l1.09-1.49h.61l-1.32,1.72,1.41,2.32h-.58l-1.18-1.97-.34.43v1.55h-.5v-4.04Z"/>
            <path class="cls-3" d="M105.54,21.8h1.99v.42h-1.48v1.37h1.37v.42h-1.37v1.83h-.51v-4.04Z"/>
            <path class="cls-3" d="M111.26,23.79c0,1.42-.75,2.12-1.66,2.12s-1.61-.79-1.61-2.06.7-2.11,1.67-2.11,1.61.82,1.61,2.05ZM108.52,23.84c0,.85.38,1.65,1.11,1.65s1.1-.8,1.1-1.68c0-.79-.33-1.65-1.1-1.65s-1.11.81-1.11,1.68Z"/>
            <path class="cls-3" d="M112.41,24.59l-.37,1.25h-.51l1.24-4.04h.59l1.24,4.04h-.53l-.38-1.25h-1.27ZM113.59,24.19l-.34-1.12c-.08-.27-.14-.54-.19-.79h-.02c-.05.26-.12.53-.19.79l-.34,1.13h1.09Z"/>
            <path class="cls-3" d="M118.25,24.08c-.03-.55-.06-1.21-.06-1.7h-.02c-.12.46-.27.96-.45,1.5l-.65,1.94h-.36l-.6-1.89c-.17-.55-.32-1.07-.42-1.54h-.02c0,.5-.04,1.14-.07,1.73l-.1,1.73h-.47l.27-4.04h.62l.62,1.92c.16.51.28.94.38,1.37h.02c.1-.42.22-.85.39-1.37l.64-1.92h.62l.24,4.04h-.49l-.09-1.76Z"/>
          </g>
        </g>
      </g>
    </g>
  </g>
</svg>