<?xml version="1.0" encoding="UTF-8"?>
<svg id="Layer_2" xmlns="http://www.w3.org/2000/svg" xmlns:xlink="http://www.w3.org/1999/xlink" viewBox="0 0 116.96 93.66">
  <defs>
    <style>
      .cls-1 {
        fill: none;
      }

      .cls-2 {
        fill: #fcecc8;
      }

      .cls-3 {
        filter: url(#drop-shadow-1);
      }

      .cls-4 {
        filter: url(#drop-shadow-3);
      }

      .cls-5 {
        filter: url(#drop-shadow-2);
      }

      .cls-6 {
        fill: #fef5e3;
      }

      .cls-7 {
        fill: #f1dbb5;
      }

      .cls-8 {
        fill: #603a18;
      }

      .cls-9 {
        fill: #826e58;
      }

      .cls-10 {
        fill: #3b2111;
      }

      .cls-11 {
        fill: #694f34;
      }

      .cls-12 {
        fill: #cdbba8;
      }

      .cls-13 {
        fill: #e8dac9;
      }

      .cls-14 {
        fill: #f8f0e2;
      }

      .cls-15 {
        fill: #ded3c6;
      }

      .cls-16 {
        fill: #775d44;
      }

      .cls-17 {
        fill: #4c3014;
      }

      .cls-18 {
        fill: #6e573d;
      }

      .cls-19 {
        fill: #fdd8b1;
      }

      .cls-20 {
        fill: #fcf6e6;
      }

      .cls-21 {
        fill: #f1ddb7;
      }

      .cls-22 {
        fill: #6b5439;
      }

      .cls-23 {
        fill: #5c4732;
      }

      .cls-24 {
        fill: #4b3116;
      }

      .cls-25 {
        fill: #f9e9c7;
      }

      .cls-26 {
        fill: #fed8b2;
      }

      .cls-27 {
        fill: #7f6d5a;
      }

      .cls-28 {
        fill: #f0dfb8;
      }

      .cls-29 {
        fill: #f6e9db;
      }

      .cls-30 {
        fill: #f2e0cd;
      }

      .cls-31 {
        fill: #f8e8c6;
      }

      .cls-32 {
        fill: #613b18;
      }

      .cls-33 {
        fill: #4c2d14;
      }

      .cls-34 {
        fill: #f9f4e5;
      }

      .cls-35 {
        fill: #fceeca;
      }

      .cls-36 {
        fill: #5f3a17;
      }

      .cls-37 {
        fill: #f2e1d0;
      }
    </style>
    <filter id="drop-shadow-1" x="-15.24" y="-15.24" width="104.64" height="96" filterUnits="userSpaceOnUse">
      <feOffset dx="0" dy="0"/>
      <feGaussianBlur result="blur" stdDeviation="5"/>
      <feFlood flood-color="#231f20" flood-opacity=".75"/>
      <feComposite in2="blur" operator="in"/>
      <feComposite in="SourceGraphic"/>
    </filter>
    <filter id="drop-shadow-2" x="27.48" y="-4.44" width="104.64" height="95.76" filterUnits="userSpaceOnUse">
      <feOffset dx="0" dy="0"/>
      <feGaussianBlur result="blur-2" stdDeviation="5"/>
      <feFlood flood-color="#231f20" flood-opacity=".75"/>
      <feComposite in2="blur-2" operator="in"/>
      <feComposite in="SourceGraphic"/>
    </filter>
    <filter id="drop-shadow-3" x=".84" y="13.08" width="104.4" height="95.76" filterUnits="userSpaceOnUse">
      <feOffset dx="0" dy="0"/>
      <feGaussianBlur result="blur-3" stdDeviation="5"/>
      <feFlood flood-color="#231f20" flood-opacity=".75"/>
      <feComposite in2="blur-3" operator="in"/>
      <feComposite in="SourceGraphic"/>
    </filter>
  </defs>
  <g id="Layer_1-2" data-name="Layer_1">
    <g class="cls-3">
      <g>
        <path class="cls-36" d="M11.64,41.9c.17.67.34,1.34.51,2.01.56.48,1.11.97,1.67,1.45-.35-.9-.7-1.8-1.17-3.01h45.73c.47,2.42-2.07,3.56-2.54,5.51.37-.15.74-.31,1.1-.46.89-1.33,1.77-2.66,2.66-4,0-1.15.9-2.1,1.08-3.22.11-.72-.36-1.6,0-2.28.4-2.15,1.7-4.22.71-6.61-.4-.12-.81-.34-1.22-.35-8.03-.03-16.06-.03-24.08-.03-5.19,0-10.38-.06-15.56.02-3.84.06-7.68.32-11.52.49.52,2,1.05,4,1.57,6"/>
        <path class="cls-19" d="M59.54,42.35H12.42c.49,1.21.85,2.11,1.21,3.01,1.9,1.88,3.75,3.8,5.73,5.61,1.75,1.6,3.91,2.16,6.45,2.12,7.02-.12,14.05-.07,21.07,0,2,.02,3.8-.29,5.34-1.5,1.58-1.24,3.14-2.48,4.71-3.73.48-1.95,3.1-3.08,2.62-5.51Z"/>
        <path class="cls-30" d="M8.04,34.92s0,.02,0,.03c0,0,0,0,0,.01v-.04Z"/>
        <path class="cls-25" d="M63.45,26.91c.03-1.15-.87-3.32-1.22-4.48-17.67,0-37.63-.02-55.3-.02-.01,1.03.02,2.07-.04,3.1-.13,1.97-.31,3.94-.46,5.91,3.89-.17,7.79-.43,11.68-.49,5.26-.09,10.52-.02,15.79-.02,8.14,0,16.29,0,24.43.03.41,0,3.13.23,3.54.35"/>
        <path class="cls-31" d="M56.77,18.09c.51-.41.93-.74,1.43-1.15-1.01-.86-1.87-1.6-2.68-2.29-1.45-.33-2.85-.66-4.38-1.01-1.67-5.23-5.89-5.73-9.94-5.74-4.14,0-8.03,1.38-10.13,6-3.6-.48-6.94.26-10.46-.93-3.4-1.15-6.67.87-9.31,4.06.92.38,1.67.69,2.41.99,14.03,1.1,29.01,2.17,43.05.07Z"/>
        <path class="cls-20" d="M14.07,17.62c-.74-.28-1.48-.56-2.41-.9,2.59-2.84,5.78-4.63,9.11-3.61,3.44,1.06,6.7.4,10.23.83,2.05-4.11,5.85-5.34,9.9-5.33,3.95,0,8.08.45,9.72,5.1,1.49.31,2.86.6,4.28.9.8.62,1.64,1.27,2.62,2.04-.59.43-1.04.76-1.7,1.24h4.27c-1.45-1.55-2.91-3.1-4.36-4.65-.12.19-.23.38-.35.57-1.35-.5-3.24-.61-3.94-1.57-1.76-2.44-4.05-3.81-6.72-4.81-6.98-.03-7.66-.45-10.64,1.76-.25.18-.51.39-.8.61-.85.67-1.9,1.52-3.26,2.59-2.21,0-4.61.38-6.84-.09-3.77-.79-7.22-.39-10.81,1.6-.82,1.16-1.81,2.58-2.81,3.99h4.5c0-.09,0-.18,0-.27Z"/>
      </g>
      <g>
        <path class="cls-6" d="M23.03,54.77h24.5c0-.08.02-.16.02-.24h-24.52c0,.08,0,.16,0,.24Z"/>
        <path class="cls-14" d="M8.05,34.96s0-.01,0-.02v.04s0-.01,0-.02Z"/>
        <path class="cls-30" d="M8.85,29c-.57-1.69-.49-4.27-.49-6.58h2.21c16.35,0,32.69,0,49.04,0h2.11c-.19,2.64.18,5.15-.08,7.5-.45,4.09-1.35,7.9-3.05,11.63-.97,2.13-1.47,4.07-2.73,6.07-.04.06-.47.72-.74.65-.35.15-1.09.84-1.43.99-1.43,1.24-2.49,1.1-3.92,2.34-1.4,1.21-3.04,1.52-4.86,1.5-6.39-.06-12.79-.11-19.18,0-2.32.04-4.28-.52-5.88-2.12-1.8-1.81-3.48-3.73-5.21-5.61-.52-.48-1.04-.97-1.56-1.45M8.05,34.97s0,0,0-.01c1.53,7.99,5.33,14.58,12.13,19.21,1.09.74,2.59,1.23,3.91,1.25,7.4.12,14.81.08,22.21.02,1.04,0,2.29-.15,3.07-.74,2.18-1.63,4.43-3.29,6.17-5.34,6.33-7.47,8.15-16.53,8.54-26,.03-.73-.43-1.47-.64-2.17H6.63c-.63,4.74-.1,9.28,1.41,13.76M47.53,54.77h-24.5c0-.08,0-.16,0-.24h24.52c0,.08-.02.16-.02.24Z"/>
        <path class="cls-25" d="M62.44,43.01c.53-.23,1.03-.5,1.51-.8,3.38-2.08,5.69-5.65,6.47-9.91-.37-.56-.81-1.24-1.29-1.97-.25-.03-.5-.07-.75-.1-.74-.1-1.49-.19-2.34-.31-.54,1.95-1.06,3.86-1.59,5.78-.66,2.38-1.32,4.78-2.01,7.3ZM68.9,30.92v4.99c-1.2,1.45-2.79,3.37-4.38,5.29-.19-.1-.37-.21-.56-.31.78-3.16,1.56-6.32,2.43-9.81.89-.06,1.6-.11,2.51-.17Z"/>
        <path class="cls-31" d="M14.12,17.91h-4.5l-4.99.02c-.45.58-.9,1.16-1.59,2.05.18,2.45.37,5.19.57,7.93h0c.19,0,.38-.02.57-.02v-8.84c20.74-.2,41.06-.15,61.78-.02v8.32c.97.24,1.58.42,2.21.53,3.11.56,4.59,2.56,4.18,5.66-.6,4.54-3.38,7.67-6.77,10.35-1.36,1.07-3,1.78-4.41,2.8-.82.59-1.44,1.45-2.14,2.19.2.01.39.02.59.04h0c1.01-.61,2.03-1.2,3.02-1.85,4.44-2.89,8.38-6.13,10.23-11.45,1.49-4.28.35-6.98-4.05-8.4-.44-.14-.81-.53-1.21-.8-.24-2.3-.47-4.61-.75-7.31-.21-.2-.73-.69-1.24-1.18-1.83,0-3.66-.02-5.49-.02h-4.27"/>
        <path class="cls-29" d="M59.01,48.89c-2.62,3.01-5.21,6.09-8.92,7.83-1.16.54-2.49,1.01-3.74,1.03-7.49.1-14.99.08-22.48.03-3.73-.03-6.31-2.47-8.73-4.8-5.33-5.11-8.18-11.6-9.67-18.75-.44-2.11-.87-4.22-1.31-6.33-.19,0-.38.02-.57.02-.05,2.7.63,5.24,1.27,7.85.83,3.39,1.9,6.53,3.51,9.67,2.04,3.98,4.65,7.31,8.02,10.16,2.69,2.27,5.64,3.45,9.24,3.37,6.32-.14,12.65-.1,18.97-.02,5.49.06,9.13-2.6,12.15-6.19.5-.6.99-1.22,1.46-1.86.47-.64.94-1.3,1.4-1.97-.2-.01-.39-.02-.59-.04Z"/>
        <rect class="cls-1" width="74.27" height="65.55"/>
        <path class="cls-22" d="M15.13,52.97c2.43,2.33,5,4.78,8.73,4.8,7.49.05,14.99.06,22.48-.03,1.26-.02,2.58-.49,3.74-1.03,3.71-1.74,6.3-4.81,8.92-7.83.71-.74,1.33-1.61,2.14-2.19,1.41-1.01,3.05-1.72,4.41-2.8,3.39-2.68,6.17-5.81,6.77-10.35.41-3.1-1.07-5.11-4.18-5.66-.62-.11-1.23-.3-2.21-.53v-8.32c-20.72-.12-41.04-.18-61.78.02v8.84c.44,2.11.87,4.22,1.31,6.33,1.48,7.15,4.33,13.64,9.67,18.75ZM55.54,49.36c-1.74,2.06-3.99,3.72-6.17,5.34-.78.58-2.03.73-3.07.74-7.4.06-14.81.1-22.21-.02-1.32-.02-2.82-.51-3.91-1.25-6.8-4.63-10.6-11.22-12.13-19.21-1.51-4.48-2.04-9.03-1.41-13.76h56.81c.22.69.67,1.44.64,2.17-.39,9.47-2.22,18.52-8.54,26ZM66.05,29.92h0c.85.11,1.6.21,2.34.31.25.03.5.06.75.1.48.74.93,1.41,1.29,1.97h0c-.78,4.26-3.09,7.83-6.47,9.91-.48.3-.99.56-1.51.8.69-2.52,1.35-4.92,2.01-7.3.53-1.92,1.05-3.83,1.59-5.78ZM65.67,20.03v8.97c-1.33-2.67.09-5.63-1.02-8.44H5.65c-.02-.18-.04-.36-.06-.53h60.08Z"/>
        <path class="cls-17" d="M64.65,20.56c1.1,2.81-.32,5.76,1.02,8.44v-8.97H5.59c.02.18.04.36.06.53h59.01Z"/>
      </g>
    </g>
    <g class="cls-5">
      <path class="cls-35" d="M104.71,28.96c-3.38-8.52-22.74-17.49-28.68-15.47-1.01,2.15-2.39,3.91-4.72,4.78-2.39.9-4.76,1.85-7.1,2.85-4.01,1.72-8.42,2.92-10.52,7.46.28.68-.47,1.3,0,1.55,16.84-.03,33.68-.03,50.52-.02M97.1,27.51c-.93.23-1.85.45-3.03.74-1.25-4.85-5.14-7.1-7.79-10.42,3.64-.16,9.65,5.13,10.82,9.68ZM82.46,24.2c.13-1.45.27-2.95.43-4.82,2.92,1.15,2.05,3.81,3.37,5.12-.65,1.27-1.16,2.29-1.74,3.42h-4.13c-.15-.17-.3-.34-.45-.51.82-1.06,1.65-2.11,2.51-3.21ZM63.41,24.58c1.24-.44,2.55-.69,3.81-1.11,2.07-.68,4.11-1.43,6.63-2.32.93-1.17,2.15-2.7,3.58-4.5v3.5c-3.79,5.81-8.67,9.31-16.2,7.62-.31-1.88.78-2.69,2.18-3.19Z"/>
      <path class="cls-7" d="M61.23,27.77c-.31-1.88.78-2.69,2.18-3.19,1.24-.44,2.55-.69,3.81-1.11,2.07-.68,4.11-1.43,6.63-2.32.93-1.17,2.15-2.7,3.58-4.5v3.5c-3.79,5.81-8.67,9.31-16.2,7.62Z"/>
      <path class="cls-28" d="M94.07,28.25c-1.25-4.85-5.14-7.1-7.79-10.42,3.63-.16,9.65,5.13,10.82,9.68-.93.23-1.85.45-3.03.74Z"/>
      <path class="cls-21" d="M79.95,27.42c.82-1.06,1.65-2.11,2.51-3.21.13-1.45.27-2.95.43-4.82,2.92,1.15,2.05,3.81,3.37,5.12-.65,1.27-1.16,2.29-1.74,3.42h-4.13l-.45-.51Z"/>
      <path class="cls-8" d="M52.93,50.33c-.05-.32-.1-.65-.15-.97-.07-1.09-.14-2.17-.21-3.23,1.73-.93,48.87-1.23,52.56-.34.08.6.17,1.24.25,1.87-.2.73-.41,1.46-.61,2.19-1.51,2.41-2.97,4.86-4.56,7.21-.83,1.22-1.82,2.35-2.88,3.37-2.6,2.51-5.45,4.02-9.33,3.83-6.5-.33-13.04-.18-19.56-.02-2.59.06-4.63-.83-6.51-2.44-3.06-2.61-5.53-5.7-7.41-9.29-.41-.79-1.06-1.45-1.59-2.17ZM59.08,55.59c.31,1.55,1.56.96,2.43.96,10.4.04,20.8.03,31.2.02h4.76c.26-.24.68-.62,1.11-1.01,1.07-2.15,2.15-4.3,3.37-6.75h-46.53c.93,2.02,1.68,3.74,2.52,5.41.26.52.76.92,1.15,1.37Z"/>
      <path class="cls-26" d="M104.29,43.51c-.02,1.26.01,2.52-.08,3.77-.05.72-.31,1.42-.48,2.13-.09-.61-.17-1.22-.25-1.8-3.66-.85-50.46-.56-52.18.33.07,1.02.14,2.06.21,3.1-.55-.69-1.11-1.38-1.77-2.21.34-1,.69-2,1.06-3.07-.11-.68-.23-1.46-.36-2.25,0-1.8,0-3.6,0-5.41,1.06-.18,2.12-.53,3.18-.51,6.18.12,12.36.43,18.54.48,9.85.09,19.71.02,29.56.02h3.11c-.21,2.09-.37,3.75-.54,5.41Z"/>
      <path class="cls-2" d="M104.82,44.08c.17-1.54.34-3.08.55-5.01h-3.2c-10.14,0-20.28.06-30.42-.02-6.36-.05-12.72-.33-19.08-.45-1.09-.02-2.18.3-3.27.47-.19-.17-.38-.33-.57-.5-.08-1.21-.16-2.42-.25-3.9.18-.15.58-.47.98-.8-.42-.25-.85-.52-1.29-.78h58.24c-.44.26-.88.53-1.3.78.24,2.78.56,5.54.67,8.31.02.62-.69,1.26-1.06,1.89Z"/>
      <path class="cls-10" d="M59.08,55.59c-.39-.45-.89-.85-1.15-1.37-.84-1.67-1.59-3.39-2.52-5.41h46.53c-1.22,2.45-2.3,4.6-3.37,6.75l-39.49.03Z"/>
      <path class="cls-33" d="M59.08,55.59l39.49-.03c-.43.39-.85.78-1.11,1.01h-4.76c-10.4,0-20.8.01-31.2-.02-.86,0-2.11.59-2.43-.96Z"/>
      <g>
        <path class="cls-6" d="M65.72,65.41h24.5c0-.08.02-.16.02-.24h-24.52c0,.08,0,.16,0,.24Z"/>
        <path class="cls-14" d="M50.74,45.59s0-.01,0-.02v.04s0-.01,0-.02Z"/>
        <path class="cls-30" d="M51.54,39.64c-.57-1.69-.49-4.27-.49-6.58h2.21c16.35,0,32.69,0,49.04,0h2.11c-.19,2.64.18,5.15-.08,7.5-.45,4.09-1.35,7.9-3.05,11.63-.97,2.13-1.47,4.07-2.73,6.07-.04.06-.47.72-.74.65-.35.15-1.09.84-1.43.99-1.43,1.24-2.49,1.1-3.92,2.34-1.4,1.21-3.04,1.52-4.86,1.5-6.39-.06-12.79-.11-19.18,0-2.32.04-4.28-.52-5.88-2.12-1.8-1.81-3.48-3.73-5.21-5.61-.52-.48-1.04-.97-1.56-1.45M50.74,45.61s0,0,0-.01c1.53,7.99,5.33,14.58,12.13,19.21,1.09.74,2.59,1.23,3.91,1.25,7.4.12,14.81.08,22.21.02,1.04,0,2.29-.15,3.07-.74,2.18-1.63,4.43-3.29,6.17-5.34,6.33-7.47,8.15-16.53,8.54-26,.03-.73-.43-1.47-.64-2.17h-56.81c-.63,4.74-.1,9.28,1.41,13.76M90.22,65.41h-24.5c0-.08,0-.16,0-.24h24.52c0,.08-.02.16-.02.24Z"/>
        <path class="cls-25" d="M105.13,53.64c.53-.23,1.03-.5,1.51-.8,3.38-2.08,5.69-5.65,6.47-9.91-.37-.56-.81-1.24-1.29-1.97-.25-.03-.5-.07-.75-.1-.74-.1-1.49-.19-2.34-.31-.54,1.95-1.06,3.86-1.59,5.78-.66,2.38-1.32,4.78-2.01,7.3ZM111.59,41.56v4.99c-1.2,1.45-2.79,3.37-4.38,5.29-.19-.1-.37-.21-.56-.31.78-3.16,1.56-6.32,2.43-9.81.89-.06,1.6-.11,2.51-.17Z"/>
        <path class="cls-31" d="M56.81,28.55h-4.5l-4.99.02c-.45.58-.9,1.16-1.59,2.05.18,2.45.37,5.19.57,7.93h0c.19,0,.38-.02.57-.02v-8.84c20.74-.2,41.06-.15,61.78-.02v8.32c.97.24,1.58.42,2.21.53,3.11.56,4.59,2.56,4.18,5.66-.6,4.54-3.38,7.67-6.77,10.35-1.36,1.07-3,1.78-4.41,2.8-.82.59-1.44,1.45-2.14,2.19.2.01.39.02.59.04h0c1.01-.61,2.03-1.2,3.02-1.85,4.44-2.89,8.38-6.13,10.23-11.45,1.49-4.28.35-6.98-4.05-8.4-.44-.14-.81-.53-1.21-.8-.24-2.3-.47-4.61-.75-7.31-.21-.2-.73-.69-1.24-1.18-1.83,0-3.66-.02-5.49-.02h-4.27"/>
        <path class="cls-29" d="M101.7,59.52c-2.62,3.01-5.21,6.09-8.92,7.83-1.16.54-2.49,1.01-3.74,1.03-7.49.1-14.99.08-22.48.03-3.73-.03-6.31-2.47-8.73-4.8-5.33-5.11-8.18-11.6-9.67-18.75-.44-2.11-.87-4.22-1.31-6.33-.19,0-.38.02-.57.02-.05,2.7.63,5.24,1.27,7.85.83,3.39,1.9,6.53,3.51,9.67,2.04,3.98,4.65,7.31,8.02,10.16,2.69,2.27,5.64,3.45,9.24,3.37,6.32-.14,12.65-.1,18.97-.02,5.49.06,9.13-2.6,12.15-6.19.5-.6.99-1.22,1.46-1.86.47-.64.94-1.3,1.4-1.97-.2-.01-.39-.02-.59-.04Z"/>
        <rect class="cls-1" x="42.69" y="10.65" width="74.27" height="65.55"/>
        <path class="cls-22" d="M57.82,63.61c2.43,2.33,5,4.78,8.73,4.8,7.49.05,14.99.06,22.48-.03,1.26-.02,2.58-.49,3.74-1.03,3.71-1.74,6.3-4.81,8.92-7.83.71-.74,1.33-1.61,2.14-2.19,1.41-1.01,3.05-1.72,4.41-2.8,3.39-2.68,6.17-5.81,6.77-10.35.41-3.1-1.07-5.11-4.18-5.66-.62-.11-1.23-.3-2.21-.53v-8.32c-20.72-.12-41.04-.18-61.78.02v8.84c.44,2.11.87,4.22,1.31,6.33,1.48,7.15,4.33,13.64,9.67,18.75ZM98.23,60c-1.74,2.06-3.99,3.72-6.17,5.34-.78.58-2.03.73-3.07.74-7.4.06-14.81.1-22.21-.02-1.32-.02-2.82-.51-3.91-1.25-6.8-4.63-10.6-11.22-12.13-19.21-1.51-4.48-2.04-9.03-1.41-13.76h56.81c.22.69.67,1.44.64,2.17-.39,9.47-2.22,18.52-8.54,26ZM108.74,40.56h0c.85.11,1.6.21,2.34.31.25.03.5.06.75.1.48.74.93,1.41,1.29,1.97h0c-.78,4.26-3.09,7.83-6.47,9.91-.48.3-.99.56-1.51.8.69-2.52,1.35-4.92,2.01-7.3.53-1.92,1.05-3.83,1.59-5.78ZM108.36,30.67v8.97c-1.33-2.67.09-5.63-1.02-8.44h-59.01c-.02-.18-.04-.36-.06-.53h60.08Z"/>
        <path class="cls-17" d="M107.34,31.2c1.1,2.81-.32,5.76,1.02,8.44v-8.97h-60.08c.02.18.04.36.06.53h59.01Z"/>
      </g>
    </g>
    <g class="cls-4">
      <path class="cls-32" d="M28.14,55.27h47.39c0,1.33.23,2.88-.04,4.24-1.73,8.91-4.82,16.6-10.28,21.71-1.4,1.31-3.25,2.1-4.92,2.19-5.19.28-10.4-.09-15.59.18-2.98.16-5.37-1.26-7.6-3.86-4.66-5.45-7.51-12.53-8.94-20.88-.17-.99-.02-2.1-.02-3.58Z"/>
      <g>
        <path class="cls-15" d="M76.57,59.82l-.96,8.28,2.94-3.36.48.86-3.99,4.59-.55-.28,1.57-11.28,3.8.68.21,3.93-1.04,2.35-.48-.86s1.42-3.39.68-4.01-1.7-1.22-1.7-1.22l-.96.31Z"/>
        <path class="cls-37" d="M37.18,77.45c2.25,2.64,4.49,5.31,8.41,5.31,3.42,0,6.85-.23,10.24.06,4.1.35,7.13-1.37,9.39-4.4,1.89-2.53,3.29-5.43,4.9-8.16.47-.52.89-1.94.98-2.52.47-2.97.79-5.17,1.14-8.16,0-2.82.36-5.48.37-8.3-.69-.17-1.37-.49-2.06-.49-12.62-.03-25.24-.03-37.86,0-.69,0-1.38.31-2.07.47h0c0,2.84,0,5.67,0,8.5,0,.17,0,.33,0,.5,0,2.38-.29,4.81.98,7.01l-1.28-.52c-.06-.16-.11-.32-.17-.48-.33-2.38-.66-4.76-.99-7.14,0-.28,0-.57,0-.85.08-2.77.16-5.55.24-8.54,1.36,0,2.26,0,3.16,0,12.48,0,24.65-.38,37.13-.41.96,0,2.24.13,3.2,0,0,0-.02.12-.02.12l.06.1c.21,1.2.62,2.41.6,3.6-.07,3.87-.29,7.73-.46,11.59h0c-.34,1.49-.69,3-1.03,4.51-1.75,6.07-5.09,10.99-10.46,14.44-6.65,0-13.3.01-19.95.02-.52-.45-1.03-.89-1.55-1.34-1.71-1.69-3.42-3.37-5.14-5.06-.46-.64-.92-1.28-1.38-1.91-.17-.49-.35-.98-.52-1.47.04-.25-.35-1.05-.31-1.3.15-.31-.15-.79,0-1.1.47.77,1.75,2.32,2.31,3.02"/>
        <path class="cls-27" d="M41.65,83.71c6.65,0,13.3-.01,19.95-.02-.49.36-.98.72-1.47,1.07-5.12,0-10.25.06-15.37-.05-1.04-.02-2.08-.65-3.11-1Z"/>
        <path class="cls-13" d="M33.19,73.19c-.04.25-.09.49-.13.74-.64-1.36-1.29-2.71-1.93-4.07-.26-1.04-.52-2.08-.79-3.12l1.28.52c.52,1.97,1.04,3.95,1.57,5.92Z"/>
        <path class="cls-16" d="M29.18,59.13c.33,2.38.66,4.76.99,7.14-1.69-2.19-.88-4.73-.99-7.14Z"/>
        <path class="cls-16" d="M31.13,69.86c.64,1.36,1.29,2.71,1.93,4.07l.52,1.47c-1.6-1.2-2.39-2.98-2.45-5.54Z"/>
        <path class="cls-9" d="M72.95,49.54l1.18.21c0,3.7.09,7.39-.05,11.08-.05,1.31-.65,2.6-1,3.9.17-3.86.39-7.73.46-11.59.02-1.2-.39-2.4-.6-3.6Z"/>
        <path class="cls-9" d="M72.06,69.25c.34-1.51.69-3.02,1.03-4.53-.01,1.58.51,3.29-1.03,4.53Z"/>
        <path class="cls-34" d="M72.62,51.27c-13.99,0-27.99,0-41.98-.01.69-.16,1.38-.47,2.07-.47,12.62-.03,25.24-.03,37.86,0,.69,0,1.37.32,2.06.49Z"/>
        <path class="cls-34" d="M30.63,51.26c0,2.83,0,5.67,0,8.5,0-2.83,0-5.67,0-8.5Z"/>
        <path class="cls-18" d="M41.61,85.77c-2.33-1.82-4.67-3.64-7-5.47-3.23-4.06-5.62-8.5-6.08-13.79-.06-.72-.3-1.42-.45-2.13v-16.16h47.09,0c-.03.2-.05.4-.08.6-.73.2-1.46.4-2.2.61l.02-.12c-14.48,0-28.72.42-43.49.42.42,3.29-1.26,5.57-.24,8.54,0,.28,0,.57,0,.85.11,2.41-.7,4.95.99,7.14.06.16.11.32.17.48.26,1.04.52,2.08.79,3.12.06,2.56.85,4.33,2.45,5.54.46.64.92,1.28,1.38,1.91,1.71,1.69,3.42,3.37,5.14,5.06.52.45,1.03.89,1.55,1.34,1.04.35,2.07.98,3.11,1,5.12.1,10.25.05,15.37.05,0,.16,0,.33,0,.49-5.04,0-10.09-.02-15.13.03-.77,0-1.55.28-2.32.44-.36.02-.71.04-1.07.05Z"/>
        <path class="cls-11" d="M60.13,85.26c0-.16,0-.33,0-.49.49-.36.98-.72,1.47-1.07,5.37-3.45,8.71-8.37,10.46-14.44,1.54-1.24,1.02-2.94,1.03-4.53h0c.35-1.29.95-2.58,1-3.89.14-3.69.05-7.39.05-11.08.07-.04.14-.1.22-.11.06,0,.18.06.18.1.04,2.54.04,5.09.12,7.63.05,1.44.25,2.88.39,4.33-.53,2.97-1.05,5.94-1.65,9.28.55,0,1.37.25,1.65-.04,1.58-1.58,3.73-2.77,3.99-5.34.35-.78.69-1.57,1.04-2.35.21-.48.42-.97.63-1.45.22.5.6,1,.63,1.51.05.77-.13,1.56-.22,2.34-1.45,3.37-4.02,5.73-6.89,7.88-1.15.86-2.1,2.02-3.06,3.12-2.04,2.34-4.03,4.72-6.04,7.08-1.3.7-2.61,1.4-3.91,2.09-.2-.05-.41-.09-.61-.14-.16-.15-.31-.29-.47-.44Z"/>
        <rect class="cls-1" x="15.91" y="28.11" width="74.27" height="65.55"/>
        <path class="cls-16" d="M75.17,48.23H28.08v16.16c-1.22-5.31-1.04-10.67-.87-16.3.94-.14,1.72-.35,2.5-.35,14.47-.02,28.94-.02,43.41.01.68,0,1.36.32,2.04.48Z"/>
        <path class="cls-24" d="M72.89,49.44c.73-.2,1.46-.4,2.2-.61v7.61c.71.15,1.32.28,1.92.41-.46.3-.93.59-1.39.89-.19,1.32-.38,2.64-.58,3.96-.13-1.44-.34-2.88-.39-4.33-.09-2.54-.08-5.09-.12-7.63,0-.04-.12-.1-.18-.1-.08,0-.15.07-.22.11"/>
        <path class="cls-11" d="M81.13,58.3c-.14.81-.29,1.62-.43,2.42-.65-2.77-2.81-2.96-5.07-2.98.46-.3.93-.59,1.39-.89.52-.03,1.03-.05,1.55-.08.86.51,1.71,1.02,2.57,1.53Z"/>
        <path class="cls-16" d="M78.56,56.77c-.52.03-1.03.05-1.55.08-.6-.13-1.21-.26-1.92-.41v-7.61c.03-.2.05-.41.08-.61.17,1.18.4,2.35.5,3.54.1,1.14.07,2.3.13,3.45.01.23.19.45.32.74.79.27,1.62.55,2.44.83Z"/>
        <path class="cls-9" d="M80.07,63.25c-.06-1.21-.13-2.43-.21-3.93-1.37-.25-2.51-.45-3.8-.68-.56,4.03-1.07,7.65-1.57,11.28.18.09.36.19.55.28,1.33-1.53,2.66-3.06,3.99-4.59-.26,2.57-2.41,3.76-3.99,5.34-.29.29-1.1.04-1.65.04.59-3.34,1.12-6.31,1.65-9.28.19-1.32.38-2.64.58-3.96,2.26.02,4.43.21,5.07,2.98,0,.36,0,.71.01,1.07-.21.48-.42.97-.63,1.45Z"/>
        <path class="cls-15" d="M34.6,81.3c-2.86-3.14-4.87-6.68-6.09-10.82-1.98-6.74-2.56-13.57-2.32-20.52.03-1.01.45-2.01.7-3.07h48.55c2.75,2.08-.03,5.87,1.84,7.96,2.16,1.37,4.06,2.59,5.67,3.62.98,7-2.43,11.29-7.07,14.86-1.91,1.47-3.48,3.09-4.91,5.05-1.61,2.22-3.85,3.97-5.81,5.92-.02-.19-.03-.38-.05-.57,2.01-2.36,4-4.75,6.04-7.08.96-1.1,1.91-2.26,3.06-3.12,2.87-2.15,5.44-4.51,6.89-7.88,1.28-2.45,2.43-4.89,0-7.34-.86-.51-1.71-1.02-2.57-1.53-.82-.28-1.65-.56-2.44-.83-.13-.29-.31-.51-.32-.74-.06-1.15-.03-2.3-.13-3.45-.11-1.18-.33-2.36-.5-3.54h0c-.68-.16-1.36-.47-2.04-.48-14.47-.03-28.94-.03-43.41-.01-.78,0-1.56.22-2.5.35-.17,5.63-.36,10.99.87,16.3.16.71.39,1.41.45,2.13.46,5.29,2.84,9.73,6.08,13.79,0,.33,0,.66-.01.99Z"/>
        <path class="cls-12" d="M34.6,81.3c0-.33,0-.66.01-.99,2.33,1.82,4.67,3.64,7,5.47.13.1.26.28.4.28,6.34-.01,12.67-.04,19.01-.08.07,0,.13-.09.2-.14,1.3-.7,2.61-1.4,3.91-2.09.02.19.03.38.05.57-1.74,1.62-3.64,2.62-6.17,2.53-4.38-.15-8.79-.26-13.16.03-3.7.24-6.56-1.08-9.12-3.5-.72-.68-1.41-1.38-2.11-2.07Z"/>
        <path class="cls-16" d="M81.12,65.65c.08-.78.27-1.57.22-2.34-.04-.52-.41-1.01-.63-1.51,0-.36,0-.71-.01-1.07.14-.81.29-1.62.43-2.42,2.42,2.45,1.27,4.9,0,7.34Z"/>
        <path class="cls-23" d="M60.6,85.69c-5.97,0-11.95.02-17.92.03.77-.15,1.55-.43,2.32-.44,5.04-.04,10.09-.02,15.13-.03.16.15.31.29.47.44Z"/>
        <path class="cls-27" d="M60.6,85.69c.2.05.41.09.61.14-.07.05-.13.14-.2.14-6.33.03-12.67.06-19.01.08-.13,0-.26-.18-.4-.28.36-.02.71-.04,1.07-.05,5.97,0,11.95-.02,17.92-.03Z"/>
      </g>
    </g>
  </g>
</svg>