<?xml version="1.0" encoding="UTF-8"?>
<svg id="Layer_1" xmlns="http://www.w3.org/2000/svg" viewBox="0 0 114.39 63.01">
  <defs>
    <style>
      .cls-1, .cls-2 {
        fill: none;
      }

      .cls-3, .cls-2 {
        stroke: #58595b;
        stroke-miterlimit: 10;
        stroke-width: .5px;
      }

      .cls-3, .cls-4 {
        fill: #613b18;
      }

      .cls-5 {
        fill: #826e58;
      }

      .cls-6 {
        fill: #231f20;
      }

      .cls-7 {
        fill: #694f34;
      }

      .cls-8 {
        fill: #cdbba8;
      }

      .cls-9 {
        fill: #ded3c6;
      }

      .cls-10 {
        fill: #775d44;
      }

      .cls-11 {
        fill: #b5e0e0;
      }

      .cls-12 {
        fill: #f5e2ce;
      }

      .cls-13 {
        fill: #6e573d;
      }

      .cls-14 {
        fill: #81674c;
      }

      .cls-15 {
        fill: #5c4732;
      }

      .cls-16 {
        fill: #4b3116;
      }

      .cls-17 {
        fill: #e1d1be;
      }

      .cls-18 {
        fill: #6a4f32;
      }

      .cls-19 {
        fill: #ded5c7;
      }

      .cls-20 {
        fill: #7f6d5a;
      }

      .cls-21 {
        fill: #5d4226;
      }

      .cls-22 {
        fill: #6d553c;
      }

      .cls-23 {
        fill: #7c634a;
      }
    </style>
  </defs>
  <g>
    <path class="cls-11" d="M56.62,39.72c-.18.71-.31,1.44-.54,2.14-.29.85-.66,1.68-.99,2.51.05-.73.1-1.47.16-2.43H17.2c-.1.94-.18,1.69-.26,2.45-.33-.84-.7-1.67-.98-2.53-.23-.69-.36-1.43-.54-2.14-1.1-4.37-1.52-8.77-.95-13.28h43.55c-.49,4.66-.94,8.97-1.39,13.27Z"/>
    <path class="cls-12" d="M56.99,36.14c-1.2,4.86-2.98,9.42-6.56,13.09-2.65,2.71-5.54,4.56-9.64,4.16-3.13-.31-6.34-.33-9.47,0-4.84.5-8.08-1.95-10.83-5.34-1.45-1.79-2.52-3.89-3.76-5.85-.83-3.01-1.66-6.03-2.49-9.04,0,0,.02.01.02.01-.15-4.6-1.19-9.19-.33-13.77,4.19-.72,42.35-.38,44.06.41.54,5.46-.4,10.89-.98,16.33ZM17.72,37.71c.15.61.27,1.23.47,1.82.25.73.58,1.43.87,2.14,1.9,2.45,3.7,4.99,5.75,7.31,1.42,1.62,3.41,2.17,5.63,2.1,3.73-.12,7.47-.11,11.2,0,2.05.06,3.69-.64,5.25-1.86,2.6-2.04,4.45-4.65,5.91-7.57.3-.71.63-1.41.88-2.13.21-.59.32-1.21.48-1.81v3.01c2.98-6.72,2.78-13.71,2.97-20.81H14.92c-.82,5.45.35,18.48,2.8,20.92v-3.11Z"/>
    <path class="cls-19" d="M10.92,16.39c1.09-.08,1.98-.19,2.87-.19,14.65-.01,29.3-.02,43.94.02,1.12,0,2.25.45,3.48.72v7.3c1.19.46,2.2.77,3.13,1.23,2.83,1.39,3.57,3.23,3.06,6.44-.81,5.16-4.14,8.43-8.05,11.37-1.15.87-2.2,1.98-3,3.18-2.51,3.78-5.4,7.11-9.63,9.01-.87.39-1.86.7-2.79.71-4.74.07-9.5-.17-14.23.1-4.18.24-6.95-1.95-9.75-4.48-4.43-4-6.67-9.3-7.96-14.82-1.54-6.59-1.82-13.41-1.08-20.6ZM64.8,27.14c-.76-.48-1.49-1.02-2.29-1.44-.74-.39-1.55-.66-2.34-1,0-1.94.1-3.59-.04-5.22-.07-.81-.57-1.57-.87-2.36-.63-.12-1.27-.35-1.9-.35-14.4-.02-28.79-.02-43.19,0-.72,0-1.43.14-2.54.25.04,4.87-.43,9.56.46,14.24.35,1.83.7,3.67,1.05,5.5.82,6.22,3.78,11.27,8.45,15.38,2.8,2.46,5.91,3.78,9.77,3.46,3.14-.26,6.33-.29,9.47,0,4.22.39,7.48-1.36,10.24-4.15,1.79-1.81,3.19-4,4.77-6.02.45-.58.85-1.21,1.37-1.71,2.14-2.04,4.32-4.03,6.48-6.04,2.5-2.5,3.37-6.53,2.08-9.61-.32-.31-.65-.63-.97-.94Z"/>
    <path class="cls-22" d="M63.69,37.7c-2.16,2.01-4.34,4.01-6.48,6.04-.53.5-.92,1.13-1.37,1.71-1.58,2.02-2.97,4.22-4.77,6.02-2.77,2.79-6.02,4.54-10.24,4.15-3.13-.29-6.33-.26-9.47,0-3.86.32-6.97-.99-9.77-3.46-4.67-4.11-7.63-9.16-8.45-15.38-.14-1.2-.29-2.4-.43-3.6.16-.33.33-.67.49-1l1.04.99h-.02c-.01.8-.19,1.65,0,2.42.56,2.3.72,4.76,2.49,6.61,1.24,1.96,2.31,4.06,3.76,5.85,2.75,3.39,5.99,5.84,10.83,5.34,3.13-.32,6.34-.3,9.47,0,4.09.4,6.99-1.45,9.64-4.16,3.58-3.67,5.36-8.23,6.56-13.09.23-.37.57-.7.68-1.1.37-1.44.66-2.9.98-4.35.16.82.32,1.65.48,2.47-.24,2.46-1.7,4.84-.85,7.37.21.07.42.14.62.2.42-.54.84-1.08,1.26-1.61,1.13-1.49,2.25-2.99,3.38-4.48.43-.09.87-.19,1.42-.31-.47,1.26-.87,2.32-1.27,3.37Z"/>
    <path class="cls-14" d="M12.09,31.28c-.89-4.68-.42-9.37-.46-14.24,1.1-.11,1.82-.25,2.54-.25,14.4-.01,28.79-.02,43.19,0,.63,0,1.27.23,1.9.35l-.16.17c-1.4.13-2.79.36-4.19.37-4.83.05-9.66.02-14.49.02-9.29,0-18.58,0-28.15,0v13.45l-.17.13Z"/>
    <path class="cls-21" d="M59.12,33.16c-.16-.82-.32-1.65-.48-2.47.02-3.23.1-6.47.01-9.69-.02-.79-.61-1.56-.94-2.34.48-.31.95-.61,1.43-.92.48,2.74-.78,5.73.87,8.02,1.85.53,3.32.96,4.78,1.38.32.31.65.63.97.94-.38.38-.75.77-1.13,1.15,0,0,0,0,0,0-.87-2.21-1.35-2.4-5.08-1.72-.1,1.16-.21,2.42-.32,3.69-.04.65-.08,1.3-.12,1.95Z"/>
    <path class="cls-23" d="M64.64,29.24c.38-.38.75-.77,1.13-1.15,1.29,3.08.42,7.11-2.08,9.61.4-1.06.79-2.11,1.27-3.37-.55.12-.98.21-1.42.31.37-1.8.73-3.59,1.1-5.39Z"/>
    <path class="cls-14" d="M64.8,27.14c-1.47-.42-2.94-.85-4.78-1.38-1.66-2.29-.39-5.29-.87-8.02.02-.15,0-.29-.05-.43,0,0,.16-.17.16-.17.3.79.81,1.55.87,2.36.14,1.63.04,3.27.04,5.22.79.33,1.6.6,2.34,1,.79.42,1.53.95,2.29,1.44Z"/>
    <path class="cls-14" d="M12.71,33.18c.14,1.2.29,2.4.43,3.6-.35-1.83-.7-3.67-1.05-5.5l.17-.13c.15.68.3,1.35.45,2.03Z"/>
    <path class="cls-18" d="M12.71,33.18c-.15-.68-.3-1.35-.45-2.03v-13.45c9.57,0,18.86,0,28.15,0,4.83,0,9.66.03,14.49-.02,1.4-.01,2.79-.24,4.19-.37.05.14.07.28.05.43-.48.31-.95.61-1.43.92-14.75,0-29.51,0-44.51,0v13.53c-.16.33-.33.67-.49,1Z"/>
    <path class="cls-14" d="M13.2,32.18v-13.53h44.51c.33.78.92,1.55.94,2.34.09,3.23,0,6.46-.01,9.69-.32,1.45-.61,2.91-.98,4.35-.1.4-.44.74-.68,1.1.59-5.44,1.52-10.87.98-16.33-1.71-.79-39.87-1.13-44.06-.41-.86,4.58.18,9.17.33,13.77-.35-.33-.69-.66-1.04-.99Z"/>
    <path class="cls-17" d="M64.64,29.24c-.37,1.8-.73,3.59-1.1,5.39-1.13,1.49-2.25,2.99-3.38,4.48-.46.1-.91.2-1.51.33.36-2.87.7-5.56,1.04-8.25.21-1.11.41-2.21.59-3.18,2.04-.94,3.19.2,4.37,1.22,0,0,0,0,0,0ZM60.95,27.92c-.41,3.61-.75,6.54-1.15,9.98,2.76-2.34,4.02-4.79,4.43-8.06-.89-.52-1.76-1.03-3.28-1.92Z"/>
    <path class="cls-14" d="M59.68,31.2c-.34,2.69-.68,5.39-1.04,8.25.6-.13,1.06-.23,1.51-.33-.42.54-.84,1.08-1.26,1.61-.21-.07-.42-.14-.62-.2-.85-2.53.62-4.91.85-7.37.04-.65.08-1.3.12-1.95.15,0,.29,0,.44,0Z"/>
    <path class="cls-14" d="M14.23,33.16c.83,3.01,1.66,6.03,2.49,9.04-1.77-1.84-1.94-4.31-2.49-6.61-.19-.77-.01-1.62,0-2.43Z"/>
    <path class="cls-23" d="M59.68,31.2c-.15,0-.29,0-.44,0,.11-1.26.22-2.53.32-3.69,3.73-.68,4.22-.49,5.08,1.72-1.19-1.02-2.34-2.16-4.37-1.22-.18.97-.39,2.07-.59,3.18Z"/>
    <path class="cls-4" d="M19.06,41.67c.07-.64.14-1.28.23-2.08h33.65c-.06.82-.1,1.44-.14,2.06-1.46,2.92-3.31,5.53-5.91,7.57-1.55,1.22-3.2,1.91-5.25,1.86-3.73-.11-7.47-.12-11.2,0-2.22.07-4.21-.48-5.63-2.1-2.05-2.32-3.85-4.86-5.75-7.31Z"/>
    <g>
      <path class="cls-13" d="M25.71,55.12c-2.33-1.82-4.67-3.64-7-5.47-3.23-4.06-5.62-8.5-6.08-13.79-.06-.72-.3-1.42-.45-2.13v-16.16h47.09,0c-.03.2-.05.4-.08.6-.73.2-1.46.4-2.2.61l.02-.12H13.28c-.73,3.06-1.02,5.98,0,8.95,0,.28,0,.57,0,.85.11,2.41-.7,4.95.99,7.14.06.16.11.32.17.48.26,1.04.52,2.08.79,3.12.06,2.56.85,4.33,2.45,5.54.46.64.92,1.28,1.38,1.91,1.71,1.69,3.42,3.37,5.14,5.06.52.45,1.03.89,1.55,1.34,1.04.35,2.07.98,3.11,1,5.12.1,10.25.05,15.37.05,0,.16,0,.33,0,.49-5.04,0-10.09-.02-15.13.03-.77,0-1.55.28-2.32.44-.36.02-.71.04-1.07.05Z"/>
      <rect class="cls-1" y=".13" width="114.39" height="62.88"/>
      <path class="cls-7" d="M44.23,54.61c0-.16,0-.33,0-.49.49-.36.98-.72,1.47-1.07,5.37-3.45,8.71-8.37,10.46-14.44,1.54-1.24,1.02-2.94,1.03-4.53h0c.35-1.29.95-2.58,1-3.89.14-3.69.05-7.39.05-11.08.07-.04.14-.1.22-.11.06,0,.18.06.18.1.04,2.54.04,5.09.12,7.63.05,1.44.25,2.88.39,4.33-.53,2.97-1.05,5.94-1.65,9.28.55,0,1.37.25,1.65-.04,1.58-1.58,3.73-2.77,3.99-5.34.35-.78.69-1.57,1.04-2.35.21-.48.42-.97.63-1.45.22.5.6,1,.63,1.51.05.77-.13,1.56-.22,2.34-1.45,3.37-4.02,5.73-6.89,7.88-1.15.86-2.1,2.02-3.06,3.12-2.04,2.34-4.03,4.72-6.04,7.08-1.3.7-2.61,1.4-3.91,2.09-.2-.05-.41-.09-.61-.14-.16-.15-.31-.29-.47-.44Z"/>
      <path class="cls-10" d="M59.27,17.58H12.18v16.16c-1.22-5.31-1.04-10.67-.87-16.3.94-.14,1.72-.35,2.5-.35,14.47-.02,28.94-.02,43.41.01.68,0,1.36.32,2.04.48Z"/>
      <path class="cls-16" d="M59.18,18.19v7.61c.71.15,1.32.28,1.92.41-.46.3-.93.59-1.39.89-.19,1.32-.38,2.64-.58,3.96-.13-1.44-.34-2.88-.39-4.33-.09-2.54-.08-5.09-.12-7.63,0-.04-.12-.1-.18-.1-.08,0-.15.07-.22.11-.39-.07-.79-.14-1.18-.21l-.06-.1c.73-.2,1.46-.4,2.2-.61Z"/>
      <path class="cls-7" d="M65.22,27.66c-.14.81-.29,1.62-.43,2.42-.65-2.77-2.81-2.96-5.07-2.98.46-.3.93-.59,1.39-.89.52-.03,1.03-.05,1.55-.08.86.51,1.71,1.02,2.57,1.53Z"/>
      <path class="cls-10" d="M62.65,26.12c-.52.03-1.03.05-1.55.08-.6-.13-1.21-.26-1.92-.41v-7.61c.03-.2.05-.41.08-.61.17,1.18.4,2.35.5,3.54.1,1.14.07,2.3.13,3.45.01.23.19.45.32.74.79.27,1.62.55,2.44.83Z"/>
      <path class="cls-5" d="M64.17,32.6c-.06-1.21-.13-2.43-.21-3.93-1.37-.25-2.51-.45-3.8-.68-.56,4.03-1.07,7.65-1.57,11.28.18.09.36.19.55.28,1.33-1.53,2.66-3.06,3.99-4.59-.26,2.57-2.41,3.76-3.99,5.34-.29.29-1.1.04-1.65.04.59-3.34,1.12-6.31,1.65-9.28.19-1.32.38-2.64.58-3.96,2.26.02,4.43.21,5.07,2.98,0,.36,0,.71.01,1.07-.21.48-.42.97-.63,1.45Z"/>
      <path class="cls-9" d="M18.69,50.65c-2.86-3.14-4.87-6.68-6.09-10.82-1.98-6.74-2.56-13.57-2.32-20.52.03-1.01.45-2.01.7-3.07h48.55c2.75,2.08-.03,5.87,1.84,7.96,2.16,1.37,4.06,2.59,5.67,3.62.98,7-2.43,11.29-7.07,14.86-1.91,1.47-3.48,3.09-4.91,5.05-1.61,2.22-3.85,3.97-5.81,5.92-.02-.19-.03-.38-.05-.57,2.01-2.36,4-4.75,6.04-7.08.96-1.1,1.91-2.26,3.06-3.12,2.87-2.15,5.44-4.51,6.89-7.88,1.28-2.45,2.43-4.89,0-7.34-.86-.51-1.71-1.02-2.57-1.53-.82-.28-1.65-.56-2.44-.83-.13-.29-.31-.51-.32-.74-.06-1.15-.03-2.3-.13-3.45-.11-1.18-.33-2.36-.5-3.54h0c-.68-.16-1.36-.47-2.04-.48-14.47-.03-28.94-.03-43.41-.01-.78,0-1.56.22-2.5.35-.17,5.63-.36,10.99.87,16.3.16.71.39,1.41.45,2.13.46,5.29,2.84,9.73,6.08,13.79,0,.33,0,.66-.01.99Z"/>
      <path class="cls-8" d="M18.69,50.65c0-.33,0-.66.01-.99,2.33,1.82,4.67,3.64,7,5.47.13.1.26.28.4.28,6.34-.01,12.67-.04,19.01-.08.07,0,.13-.09.2-.14,1.3-.7,2.61-1.4,3.91-2.09.02.19.03.38.05.57-1.74,1.62-3.64,2.62-6.17,2.53-4.38-.15-8.79-.26-13.16.03-3.7.24-6.56-1.08-9.12-3.5-.72-.68-1.41-1.38-2.11-2.07Z"/>
      <path class="cls-10" d="M65.21,35c.08-.78.27-1.57.22-2.34-.04-.52-.41-1.01-.63-1.51,0-.36,0-.71-.01-1.07.14-.81.29-1.62.43-2.42,2.42,2.45,1.27,4.9,0,7.34Z"/>
      <path class="cls-15" d="M44.69,55.04c-5.97,0-11.95.02-17.92.03.77-.15,1.55-.43,2.32-.44,5.04-.04,10.09-.02,15.13-.03.16.15.31.29.47.44Z"/>
      <path class="cls-20" d="M44.69,55.04c.2.05.41.09.61.14-.07.05-.13.14-.2.14-6.33.03-12.67.06-19.01.08-.13,0-.26-.18-.4-.28.36-.02.71-.04,1.07-.05,5.97,0,11.95-.02,17.92-.03Z"/>
    </g>
  </g>
  <g>
    <g>
      <g>
        <circle class="cls-11" cx="74.39" cy="47.55" r="1.75"/>
        <circle class="cls-2" cx="74.39" cy="47.55" r="1.75"/>
      </g>
      <g>
        <path class="cls-6" d="M79.94,49.65l-1.03-4.04h.55l.48,2.04c.12.5.23,1.01.3,1.4h.01c.07-.4.19-.88.33-1.4l.54-2.04h.55l.49,2.05c.11.48.22.96.28,1.39h.01c.08-.44.2-.89.32-1.4l.53-2.04h.53l-1.15,4.04h-.55l-.51-2.1c-.13-.52-.21-.91-.26-1.32h-.01c-.07.4-.16.8-.31,1.32l-.58,2.1h-.55Z"/>
        <path class="cls-6" d="M84.67,48.38l-.42,1.27h-.54l1.37-4.04h.63l1.38,4.04h-.56l-.43-1.27h-1.43ZM85.99,47.97l-.4-1.16c-.09-.26-.15-.5-.21-.74h-.01c-.06.24-.13.49-.2.73l-.4,1.17h1.22Z"/>
        <path class="cls-6" d="M87.99,46.05h-1.23v-.44h2.99v.44h-1.24v3.6h-.53v-3.6Z"/>
        <path class="cls-6" d="M92.3,47.75h-1.57v1.46h1.75v.44h-2.27v-4.04h2.18v.44h-1.66v1.28h1.57v.43Z"/>
        <path class="cls-6" d="M93.16,45.66c.26-.05.64-.08,1-.08.56,0,.92.1,1.17.33.2.18.32.46.32.77,0,.53-.34.89-.76,1.03v.02c.31.11.5.4.59.82.13.56.23.95.31,1.11h-.54c-.07-.11-.16-.46-.27-.97-.12-.56-.34-.77-.81-.79h-.49v1.75h-.52v-3.99ZM93.68,47.5h.53c.56,0,.91-.31.91-.77,0-.52-.38-.75-.93-.76-.25,0-.43.02-.52.05v1.48Z"/>
      </g>
    </g>
    <g>
      <circle class="cls-3" cx="74.39" cy="54.22" r="1.75"/>
      <g>
        <path class="cls-6" d="M81.37,54.42h-1.57v1.46h1.75v.44h-2.27v-4.04h2.18v.44h-1.66v1.28h1.57v.43Z"/>
        <path class="cls-6" d="M82.16,55.68c.23.14.58.26.94.26.53,0,.85-.28.85-.69,0-.38-.22-.59-.76-.8-.66-.23-1.07-.58-1.07-1.15,0-.63.52-1.1,1.31-1.1.41,0,.71.1.89.2l-.14.43c-.13-.07-.4-.19-.77-.19-.55,0-.76.33-.76.61,0,.38.25.56.8.78.68.26,1.03.59,1.03,1.19,0,.62-.46,1.16-1.42,1.16-.39,0-.82-.11-1.03-.26l.13-.44Z"/>
        <path class="cls-6" d="M85.19,52.33c.25-.04.58-.08,1-.08.52,0,.89.12,1.13.34.22.19.35.49.35.85s-.11.65-.31.86c-.28.29-.73.44-1.23.44-.16,0-.3,0-.42-.04v1.62h-.52v-3.99ZM85.71,54.27c.11.03.26.04.43.04.63,0,1.01-.31,1.01-.86s-.38-.79-.95-.79c-.23,0-.4.02-.49.04v1.57Z"/>
        <path class="cls-6" d="M88.38,52.33c.26-.05.64-.08,1-.08.56,0,.92.1,1.17.33.2.18.32.46.32.77,0,.53-.34.89-.76,1.03v.02c.31.11.5.4.59.82.13.56.23.95.31,1.11h-.54c-.07-.11-.16-.46-.27-.97-.12-.56-.34-.77-.81-.79h-.49v1.75h-.52v-3.99ZM88.9,54.17h.53c.56,0,.91-.31.91-.77,0-.52-.38-.75-.93-.76-.25,0-.43.02-.52.05v1.48Z"/>
        <path class="cls-6" d="M93.7,54.42h-1.57v1.46h1.75v.44h-2.27v-4.04h2.18v.44h-1.66v1.28h1.57v.43Z"/>
        <path class="cls-6" d="M94.49,55.68c.23.14.58.26.94.26.53,0,.85-.28.85-.69,0-.38-.22-.59-.76-.8-.66-.23-1.07-.58-1.07-1.15,0-.63.52-1.1,1.31-1.1.41,0,.71.1.89.2l-.14.43c-.13-.07-.4-.19-.77-.19-.55,0-.76.33-.76.61,0,.38.25.56.8.78.68.26,1.03.59,1.03,1.19,0,.62-.46,1.16-1.42,1.16-.39,0-.82-.11-1.03-.26l.13-.44Z"/>
        <path class="cls-6" d="M97.45,55.68c.23.14.58.26.94.26.53,0,.85-.28.85-.69,0-.38-.22-.59-.76-.8-.66-.23-1.07-.58-1.07-1.15,0-.63.52-1.1,1.31-1.1.41,0,.71.1.89.2l-.14.43c-.13-.07-.4-.19-.77-.19-.55,0-.76.33-.76.61,0,.38.25.56.8.78.68.26,1.03.59,1.03,1.19,0,.62-.46,1.16-1.42,1.16-.39,0-.82-.11-1.03-.26l.13-.44Z"/>
        <path class="cls-6" d="M103.93,54.26c0,1.39-.85,2.13-1.88,2.13s-1.82-.83-1.82-2.05c0-1.28.8-2.12,1.88-2.12s1.82.85,1.82,2.04ZM100.8,54.32c0,.86.47,1.64,1.29,1.64s1.3-.76,1.3-1.68c0-.8-.42-1.64-1.29-1.64s-1.3.8-1.3,1.69Z"/>
      </g>
    </g>
  </g>
</svg>