<?xml version="1.0" encoding="UTF-8"?>
<svg id="Layer_2" xmlns="http://www.w3.org/2000/svg" viewBox="0 0 74.27 62.88">
  <defs>
    <style>
      .cls-1 {
        fill: none;
      }

      .cls-2 {
        fill: #b5e0e0;
      }

      .cls-3 {
        fill: #f5e2ce;
      }

      .cls-4 {
        fill: #81674c;
      }

      .cls-5 {
        fill: #e1d1be;
      }

      .cls-6 {
        fill: #6a4f32;
      }

      .cls-7 {
        fill: #ded5c7;
      }

      .cls-8 {
        fill: #613b18;
      }

      .cls-9 {
        fill: #5d4226;
      }

      .cls-10 {
        fill: #6d553c;
      }

      .cls-11 {
        fill: #7c634a;
      }
    </style>
  </defs>
  <g id="Layer_1-2" data-name="Layer_1">
    <rect class="cls-1" width="74.27" height="62.88"/>
    <g>
      <path class="cls-2" d="M57.2,40.72c-.18.71-.31,1.44-.54,2.14-.29.85-.66,1.68-.99,2.51.05-.73.1-1.47.16-2.43H17.78c-.1.94-.18,1.69-.26,2.45-.33-.84-.7-1.67-.98-2.53-.23-.69-.36-1.43-.54-2.14-1.1-4.37-1.52-8.77-.95-13.28h43.55c-.49,4.66-.94,8.97-1.39,13.27Z"/>
      <path class="cls-7" d="M11.5,17.39c1.09-.08,1.98-.19,2.87-.19,14.65-.01,29.3-.02,43.94.02,1.12,0,2.25.45,3.48.72v7.3c1.19.46,2.2.77,3.13,1.23,2.83,1.39,3.57,3.23,3.06,6.44-.81,5.16-4.14,8.43-8.05,11.37-1.15.87-2.2,1.98-3,3.18-2.51,3.78-5.4,7.11-9.63,9.01-.87.39-1.86.7-2.79.71-4.74.07-9.5-.17-14.23.1-4.18.24-6.95-1.95-9.75-4.48-4.43-4-6.67-9.3-7.96-14.82-1.54-6.59-1.82-13.41-1.08-20.6ZM65.38,28.14c-.76-.48-1.49-1.02-2.29-1.44-.74-.39-1.55-.66-2.34-1,0-1.94.1-3.59-.04-5.22-.07-.81-.57-1.57-.87-2.36-.63-.12-1.27-.35-1.9-.35-14.4-.02-28.79-.02-43.19,0-.72,0-1.43.14-2.54.25.04,4.87-.43,9.56.46,14.24.35,1.83.7,3.67,1.05,5.5.82,6.22,3.78,11.27,8.45,15.38,2.8,2.46,5.91,3.78,9.77,3.46,3.14-.26,6.33-.29,9.47,0,4.22.39,7.48-1.36,10.24-4.15,1.79-1.81,3.19-4,4.77-6.02.45-.58.85-1.21,1.37-1.71,2.14-2.04,4.32-4.03,6.48-6.04,2.5-2.5,3.37-6.53,2.08-9.61-.32-.31-.65-.63-.97-.94Z"/>
      <path class="cls-10" d="M64.27,38.7c-2.16,2.01-4.34,4.01-6.48,6.04-.53.5-.92,1.13-1.37,1.71-1.58,2.02-2.97,4.22-4.77,6.02-2.77,2.79-6.02,4.54-10.24,4.15-3.13-.29-6.33-.26-9.47,0-3.86.32-6.97-.99-9.77-3.46-4.67-4.11-7.63-9.16-8.45-15.38-.14-1.2-.29-2.4-.43-3.6.16-.33.33-.67.49-1l1.04.99h-.02c-.01.8-.19,1.65,0,2.42.56,2.3.72,4.76,2.49,6.61,1.24,1.96,2.31,4.06,3.76,5.85,2.75,3.39,5.99,5.84,10.83,5.34,3.13-.32,6.34-.3,9.47,0,4.09.4,6.99-1.45,9.64-4.16,3.58-3.67,5.36-8.23,6.56-13.09.23-.37.57-.7.68-1.1.37-1.44.66-2.9.98-4.35.16.82.32,1.65.48,2.47-.24,2.46-1.7,4.84-.85,7.37.21.07.42.14.62.2.42-.54.84-1.08,1.26-1.61,1.13-1.49,2.25-2.99,3.38-4.48.43-.09.87-.19,1.42-.31-.47,1.26-.87,2.32-1.27,3.37Z"/>
      <path class="cls-4" d="M12.67,32.28c-.89-4.68-.42-9.37-.46-14.24,1.1-.11,1.82-.25,2.54-.25,14.4-.01,28.79-.02,43.19,0,.63,0,1.27.23,1.9.35l-.16.17c-1.4.13-2.79.36-4.19.37-4.83.05-9.66.02-14.49.02-9.29,0-18.58,0-28.15,0v13.45l-.17.13Z"/>
      <path class="cls-9" d="M59.7,34.16c-.16-.82-.32-1.65-.48-2.47.02-3.23.1-6.47.01-9.69-.02-.79-.61-1.56-.94-2.34.48-.31.95-.61,1.43-.92.48,2.74-.78,5.73.87,8.02,1.85.53,3.32.96,4.78,1.38.32.31.65.63.97.94-.38.38-.75.77-1.13,1.15,0,0,0,0,0,0-.87-2.21-1.35-2.4-5.08-1.72-.1,1.16-.21,2.42-.32,3.69-.04.65-.08,1.3-.12,1.95Z"/>
      <path class="cls-11" d="M65.22,30.24c.38-.38.75-.77,1.13-1.15,1.29,3.08.42,7.11-2.08,9.61.4-1.06.79-2.11,1.27-3.37-.55.12-.98.21-1.42.31.37-1.8.73-3.59,1.1-5.39Z"/>
      <path class="cls-4" d="M65.38,28.14c-1.47-.42-2.94-.85-4.78-1.38-1.66-2.29-.39-5.29-.87-8.02.02-.15,0-.29-.05-.43,0,0,.16-.17.16-.17.3.79.81,1.55.87,2.36.14,1.63.04,3.27.04,5.22.79.33,1.6.6,2.34,1,.79.42,1.53.95,2.29,1.44Z"/>
      <path class="cls-4" d="M13.29,34.18c.14,1.2.29,2.4.43,3.6-.35-1.83-.7-3.67-1.05-5.5l.17-.13c.15.68.3,1.35.45,2.03Z"/>
      <path class="cls-3" d="M57.57,37.14c-1.2,4.86-2.98,9.42-6.56,13.09-2.65,2.71-5.54,4.56-9.64,4.16-3.13-.31-6.34-.33-9.47,0-4.84.5-8.08-1.95-10.83-5.34-1.45-1.79-2.52-3.89-3.76-5.85-.83-3.01-1.66-6.03-2.49-9.04,0,0,.02.01.02.01-.15-4.6-1.19-9.19-.33-13.77,4.19-.72,42.35-.38,44.06.41.54,5.46-.4,10.89-.98,16.33ZM18.3,38.71c.15.61.27,1.23.47,1.82.25.73.58,1.43.87,2.14,1.9,2.45,3.7,4.99,5.75,7.31,1.42,1.62,3.41,2.17,5.63,2.1,3.73-.12,7.47-.11,11.2,0,2.05.06,3.69-.64,5.25-1.86,2.6-2.04,4.45-4.65,5.91-7.57.3-.71.63-1.41.88-2.13.21-.59.32-1.21.48-1.81v3.01c2.98-6.72,2.78-13.71,2.97-20.81H15.5c-.82,5.45.35,18.48,2.8,20.92v-3.11Z"/>
      <path class="cls-6" d="M13.29,34.18c-.15-.68-.3-1.35-.45-2.03v-13.45c9.57,0,18.86,0,28.15,0,4.83,0,9.66.03,14.49-.02,1.4-.01,2.79-.24,4.19-.37.05.14.07.28.05.43-.48.31-.95.61-1.43.92-14.75,0-29.51,0-44.51,0v13.53c-.16.33-.33.67-.49,1Z"/>
      <path class="cls-4" d="M13.79,33.18v-13.53h44.51c.33.78.92,1.55.94,2.34.09,3.23,0,6.46-.01,9.69-.32,1.45-.61,2.91-.98,4.35-.1.4-.44.74-.68,1.1.59-5.44,1.52-10.87.98-16.33-1.71-.79-39.87-1.13-44.06-.41-.86,4.58.18,9.17.33,13.77-.35-.33-.69-.66-1.04-.99Z"/>
      <path class="cls-5" d="M65.22,30.24c-.37,1.8-.73,3.59-1.1,5.39-1.13,1.49-2.25,2.99-3.38,4.48-.46.1-.91.2-1.51.33.36-2.87.7-5.56,1.04-8.25.21-1.11.41-2.21.59-3.18,2.04-.94,3.19.2,4.37,1.22,0,0,0,0,0,0ZM61.53,28.92c-.41,3.61-.75,6.54-1.15,9.98,2.76-2.34,4.02-4.79,4.43-8.06-.89-.52-1.76-1.03-3.28-1.92Z"/>
      <path class="cls-4" d="M60.26,32.2c-.34,2.69-.68,5.39-1.04,8.25.6-.13,1.06-.23,1.51-.33-.42.54-.84,1.08-1.26,1.61-.21-.07-.42-.14-.62-.2-.85-2.53.62-4.91.85-7.37.04-.65.08-1.3.12-1.95.15,0,.29,0,.44,0Z"/>
      <path class="cls-4" d="M14.81,34.16c.83,3.01,1.66,6.03,2.49,9.04-1.77-1.84-1.94-4.31-2.49-6.61-.19-.77-.01-1.62,0-2.43Z"/>
      <path class="cls-11" d="M60.26,32.2c-.15,0-.29,0-.44,0,.11-1.26.22-2.53.32-3.69,3.73-.68,4.22-.49,5.08,1.72-1.19-1.02-2.34-2.16-4.37-1.22-.18.97-.39,2.07-.59,3.18Z"/>
      <path class="cls-8" d="M19.64,42.67c.07-.64.14-1.28.23-2.08h33.65c-.06.82-.1,1.44-.14,2.06-1.46,2.92-3.31,5.53-5.91,7.57-1.55,1.22-3.2,1.91-5.25,1.86-3.73-.11-7.47-.12-11.2,0-2.22.07-4.21-.48-5.63-2.1-2.05-2.32-3.85-4.86-5.75-7.31Z"/>
    </g>
  </g>
</svg>