<?xml version="1.0" encoding="UTF-8"?>
<svg id="Layer_2" xmlns="http://www.w3.org/2000/svg" viewBox="0 0 141.09 65.55">
  <defs>
    <style>
      .cls-1 {
        fill: none;
      }

      .cls-2 {
        fill: #faebca;
      }

      .cls-3 {
        fill: #603a17;
      }

      .cls-4 {
        fill: #826e58;
      }

      .cls-5 {
        fill: #231f20;
      }

      .cls-6 {
        fill: #694f34;
      }

      .cls-7 {
        fill: #cdbba8;
      }

      .cls-8 {
        fill: #e8dac9;
      }

      .cls-9 {
        fill: #ded3c6;
      }

      .cls-10 {
        fill: #775d44;
      }

      .cls-11 {
        fill: #6e573d;
      }

      .cls-12 {
        fill: #5c4732;
      }

      .cls-13 {
        fill: #4b3116;
      }

      .cls-14 {
        fill: #7f6d5a;
      }

      .cls-15 {
        fill: #613b18;
      }

      .cls-16 {
        fill: #f9f4e5;
      }

      .cls-17 {
        fill: #f2e1d0;
      }
    </style>
  </defs>
  <g id="Layer_1-2" data-name="Layer_1">
    <g>
      <path class="cls-8" d="M24.07,48.62c-.26-.26.25.75,0,.72-.45-.06-1.66-1.06-2.08-1.57-.57-.7-1.65-2.81-2.13-3.58-.48-1.62-.43-3.27-.83-4.91-.44-1.81.11-2.65,1.91-3.14,11.76,0,23.51,0,35.27,0,.82.34,1.64.68,2.64,1.1-.41,1.78-.77,3.35-1.13,4.91-1.65,2.74-3.07,5.64-5.01,8.16-2.31,3.02-5.41,4.75-9.59,4.4-3.46-.29-6.97-.06-10.46-.06-4,0-6.29-2.67-8.59-5.31-.13-.14-.01-.49-.01-.73.78.75,1.56,1.5,2.35,2.24,1.96,1.85,4.14,2.96,7.04,2.8,3.89-.21,7.81.06,11.71-.12,1.43-.07,3.03-.53,4.21-1.31,4.97-3.28,7.16-8.23,8.11-13.82.05-.32-.33-.72-.48-1.02H19.86c.11.89.06,1.58.3,2.14,1.26,3.05,2.6,6.07,3.91,9.1Z"/>
      <path class="cls-16" d="M20.9,36.15c-1.76.49-2.3,1.32-1.87,3.14.39,1.64.92,3.25,1.38,4.87-.15.31-.3.62-.45.93-.52-1.97-1.04-3.95-1.57-5.92-1.28-2.2-.99-4.63-.98-7.01.51-.74,1.03-1.47,1.73-2.49.97.07,2.17-.07,3.2.28,1.87.63,3.61.82,5.57.3,1.36-.36,2.88-.07,4.33-.08,2.28,0,4.56-.03,6.84-.02,1.45,0,2.95-.16,4.34.15,2.68.59,5.24.66,7.63-.63,2.81.82,6.14-1.01,8.33,1.97-.35,2.99-.64,5.99-1.11,8.96-.09.58-.89,1.04-1.37,1.56.35-1.57.71-3.14,1.11-4.91-.98-.42-1.78-.76-2.58-1.1.48-.44.95-.88,1.55-1.43-.12-1.09-.24-2.19-.36-3.32H19.56c-.06,1.25-.11,2.3-.16,3.36.55.51,1.03.95,1.51,1.38Z"/>
      <path class="cls-3" d="M24.06,48.62c-1.31-3.03-2.65-6.05-3.92-9.1-.24-.57-.18-1.25-.3-2.14h37.19c.15.3.53.69.48,1.02-.95,5.59-3.14,10.54-8.12,13.82-1.18.78-2.78,1.25-4.21,1.31-3.9.18-7.83-.09-11.73.12-2.91.15-5.09-.95-7.05-2.8-.79-.74-1.57-1.49-2.36-2.24h.02Z"/>
      <path class="cls-2" d="M20.9,36.15c-.48-.44-.96-.88-1.51-1.38.05-1.06.1-2.11.16-3.36h37.07c.12,1.12.24,2.23.36,3.32-.6.55-1.07.99-1.55,1.43-11.51,0-23.03,0-34.54,0Z"/>
      <g>
        <path class="cls-9" d="M63.36,31.71l-.96,8.28,2.94-3.36.48.86-3.99,4.59-.55-.28,1.57-11.28,3.8.68.21,3.93-1.04,2.35-.48-.86s1.42-3.39.68-4.01-1.7-1.22-1.7-1.22l-.96.31Z"/>
        <path class="cls-17" d="M23.96,49.34c2.25,2.64,4.49,5.31,8.41,5.31,3.42,0,6.85-.23,10.24.06,4.1.35,7.13-1.37,9.39-4.4,1.89-2.53,3.29-5.43,4.9-8.16.47-.52.89-1.94.98-2.52.47-2.97.79-5.17,1.14-8.16,0-2.82.36-5.48.37-8.3-.69-.17-1.37-.49-2.06-.49-12.62-.03-25.24-.03-37.86,0-.69,0-1.38.31-2.07.47h0c0,2.84,0,5.67,0,8.5,0,.17,0,.33,0,.5,0,2.38-.29,4.81.98,7.01l-1.28-.52c-.06-.16-.11-.32-.17-.48-.33-2.38-.66-4.76-.99-7.14,0-.28,0-.57,0-.85.08-2.77.16-5.55.24-8.54,1.36,0,2.26,0,3.16,0,12.48,0,24.65-.38,37.13-.41.96,0,2.24.13,3.2,0,0,0-.02.12-.02.12l.06.1c.21,1.2.62,2.41.6,3.6-.07,3.87-.29,7.73-.46,11.59h0c-.34,1.49-.69,3-1.03,4.51-1.75,6.07-5.09,10.99-10.46,14.44-6.65,0-13.3.01-19.95.02-.52-.45-1.03-.89-1.55-1.34-1.71-1.69-3.42-3.37-5.14-5.06-.46-.64-.92-1.28-1.38-1.91-.17-.49-.35-.98-.52-1.47.04-.25-.35-1.05-.31-1.3.15-.31-.15-.79,0-1.1.47.77,1.75,2.32,2.31,3.02"/>
        <path class="cls-14" d="M28.44,55.6c6.65,0,13.3-.01,19.95-.02-.49.36-.98.72-1.47,1.07-5.12,0-10.25.06-15.37-.05-1.04-.02-2.08-.65-3.11-1Z"/>
        <path class="cls-8" d="M19.97,45.08c-.04.25-.09.49-.13.74-.64-1.36-1.29-2.71-1.93-4.07-.26-1.04-.52-2.08-.79-3.12l1.28.52c.52,1.97,1.04,3.95,1.57,5.92Z"/>
        <path class="cls-10" d="M15.97,31.02c.33,2.38.66,4.76.99,7.14-1.69-2.19-.88-4.73-.99-7.14Z"/>
        <rect class="cls-1" x="2.69" width="74.27" height="65.55"/>
        <path class="cls-10" d="M17.91,41.76c.64,1.36,1.29,2.71,1.93,4.07l.52,1.47c-1.6-1.2-2.39-2.98-2.45-5.54Z"/>
        <path class="cls-4" d="M59.73,21.44l1.18.21c0,3.7.09,7.39-.05,11.08-.05,1.31-.65,2.6-1,3.9.17-3.86.39-7.73.46-11.59.02-1.2-.39-2.4-.6-3.6Z"/>
        <path class="cls-4" d="M58.85,41.14c.34-1.51.69-3.02,1.03-4.53-.01,1.58.51,3.29-1.03,4.53Z"/>
        <path class="cls-16" d="M59.4,23.16c-13.99,0-27.99,0-41.98-.01.69-.16,1.38-.47,2.07-.47,12.62-.03,25.24-.03,37.86,0,.69,0,1.37.32,2.06.49Z"/>
        <path class="cls-16" d="M17.41,23.15c0,2.83,0,5.67,0,8.5,0-2.83,0-5.67,0-8.5Z"/>
        <path class="cls-11" d="M28.4,57.67c-2.33-1.82-4.67-3.64-7-5.47-3.23-4.06-5.62-8.5-6.08-13.79-.06-.72-.3-1.42-.45-2.13v-16.16h47.09,0c-.03.2-.05.4-.08.6-.73.2-1.46.4-2.2.61l.02-.12c-14.48,0-28.72.42-43.49.42.42,3.29-1.26,5.57-.24,8.54,0,.28,0,.57,0,.85.11,2.41-.7,4.95.99,7.14.06.16.11.32.17.48.26,1.04.52,2.08.79,3.12.06,2.56.85,4.33,2.45,5.54.46.64.92,1.28,1.38,1.91,1.71,1.69,3.42,3.37,5.14,5.06.52.45,1.03.89,1.55,1.34,1.04.35,2.07.98,3.11,1,5.12.1,10.25.05,15.37.05,0,.16,0,.33,0,.49-5.04,0-10.09-.02-15.13.03-.77,0-1.55.28-2.32.44-.36.02-.71.04-1.07.05Z"/>
        <path class="cls-6" d="M46.92,57.15c0-.16,0-.33,0-.49.49-.36.98-.72,1.47-1.07,5.37-3.45,8.71-8.37,10.46-14.44,1.54-1.24,1.02-2.94,1.03-4.53h0c.35-1.29.95-2.58,1-3.89.14-3.69.05-7.39.05-11.08.07-.04.14-.1.22-.11.06,0,.18.06.18.1.04,2.54.04,5.09.12,7.63.05,1.44.25,2.88.39,4.33-.53,2.97-1.05,5.94-1.65,9.28.55,0,1.37.25,1.65-.04,1.58-1.58,3.73-2.77,3.99-5.34.35-.78.69-1.57,1.04-2.35.21-.48.42-.97.63-1.45.22.5.6,1,.63,1.51.05.77-.13,1.56-.22,2.34-1.45,3.37-4.02,5.73-6.89,7.88-1.15.86-2.1,2.02-3.06,3.12-2.04,2.34-4.03,4.72-6.04,7.08-1.3.7-2.61,1.4-3.91,2.09-.2-.05-.41-.09-.61-.14-.16-.15-.31-.29-.47-.44Z"/>
        <path class="cls-10" d="M61.96,20.12H14.87v16.16c-1.22-5.31-1.04-10.67-.87-16.3.94-.14,1.72-.35,2.5-.35,14.47-.02,28.94-.02,43.41.01.68,0,1.36.32,2.04.48Z"/>
        <path class="cls-13" d="M59.67,21.33c.73-.2,1.46-.4,2.2-.61v7.61c.71.15,1.32.28,1.92.41-.46.3-.93.59-1.39.89-.19,1.32-.38,2.64-.58,3.96-.13-1.44-.34-2.88-.39-4.33-.09-2.54-.08-5.09-.12-7.63,0-.04-.12-.1-.18-.1-.08,0-.15.07-.22.11"/>
        <path class="cls-6" d="M67.91,30.2c-.14.81-.29,1.62-.43,2.42-.65-2.77-2.81-2.96-5.07-2.98.46-.3.93-.59,1.39-.89.52-.03,1.03-.05,1.55-.08.86.51,1.71,1.02,2.57,1.53Z"/>
        <path class="cls-10" d="M65.34,28.66c-.52.03-1.03.05-1.55.08-.6-.13-1.21-.26-1.92-.41v-7.61c.03-.2.05-.41.08-.61.17,1.18.4,2.35.5,3.54.1,1.14.07,2.3.13,3.45.01.23.19.45.32.74.79.27,1.62.55,2.44.83Z"/>
        <path class="cls-4" d="M66.86,35.14c-.06-1.21-.13-2.43-.21-3.93-1.37-.25-2.51-.45-3.8-.68-.56,4.03-1.07,7.65-1.57,11.28.18.09.36.19.55.28,1.33-1.53,2.66-3.06,3.99-4.59-.26,2.57-2.41,3.76-3.99,5.34-.29.29-1.1.04-1.65.04.59-3.34,1.12-6.31,1.65-9.28.19-1.32.38-2.64.58-3.96,2.26.02,4.43.21,5.07,2.98,0,.36,0,.71.01,1.07-.21.48-.42.97-.63,1.45Z"/>
        <path class="cls-9" d="M21.39,53.19c-2.86-3.14-4.87-6.68-6.09-10.82-1.98-6.74-2.56-13.57-2.32-20.52.03-1.01.45-2.01.7-3.07h48.55c2.75,2.08-.03,5.87,1.84,7.96,2.16,1.37,4.06,2.59,5.67,3.62.98,7-2.43,11.29-7.07,14.86-1.91,1.47-3.48,3.09-4.91,5.05-1.61,2.22-3.85,3.97-5.81,5.92-.02-.19-.03-.38-.05-.57,2.01-2.36,4-4.75,6.04-7.08.96-1.1,1.91-2.26,3.06-3.12,2.87-2.15,5.44-4.51,6.89-7.88,1.28-2.45,2.43-4.89,0-7.34-.86-.51-1.71-1.02-2.57-1.53-.82-.28-1.65-.56-2.44-.83-.13-.29-.31-.51-.32-.74-.06-1.15-.03-2.3-.13-3.45-.11-1.18-.33-2.36-.5-3.54h0c-.68-.16-1.36-.47-2.04-.48-14.47-.03-28.94-.03-43.41-.01-.78,0-1.56.22-2.5.35-.17,5.63-.36,10.99.87,16.3.16.71.39,1.41.45,2.13.46,5.29,2.84,9.73,6.08,13.79,0,.33,0,.66-.01.99Z"/>
        <path class="cls-7" d="M21.39,53.19c0-.33,0-.66.01-.99,2.33,1.82,4.67,3.64,7,5.47.13.1.26.28.4.28,6.34-.01,12.67-.04,19.01-.08.07,0,.13-.09.2-.14,1.3-.7,2.61-1.4,3.91-2.09.02.19.03.38.05.57-1.74,1.62-3.64,2.62-6.17,2.53-4.38-.15-8.79-.26-13.16.03-3.7.24-6.56-1.08-9.12-3.5-.72-.68-1.41-1.38-2.11-2.07Z"/>
        <path class="cls-10" d="M67.9,37.54c.08-.78.27-1.57.22-2.34-.04-.52-.41-1.01-.63-1.51,0-.36,0-.71-.01-1.07.14-.81.29-1.62.43-2.42,2.42,2.45,1.27,4.9,0,7.34Z"/>
        <path class="cls-12" d="M47.38,57.58c-5.97,0-11.95.02-17.92.03.77-.15,1.55-.43,2.32-.44,5.04-.04,10.09-.02,15.13-.03.16.15.31.29.47.44Z"/>
        <path class="cls-14" d="M47.38,57.58c.2.05.41.09.61.14-.07.05-.13.14-.2.14-6.33.03-12.67.06-19.01.08-.13,0-.26-.18-.4-.28.36-.02.71-.04,1.07-.05,5.97,0,11.95-.02,17.92-.03Z"/>
      </g>
      <g>
        <rect class="cls-1" width="141.09" height="65.55"/>
        <g>
          <circle class="cls-15" cx="88.08" cy="37.09" r="1.75"/>
          <g>
            <path class="cls-5" d="M95.06,37.29h-1.57v1.46h1.75v.44h-2.27v-4.04h2.18v.44h-1.66v1.28h1.57v.43Z"/>
            <path class="cls-5" d="M95.85,38.55c.23.14.58.26.94.26.53,0,.85-.28.85-.69,0-.38-.22-.59-.76-.8-.66-.23-1.07-.58-1.07-1.15,0-.63.52-1.1,1.31-1.1.41,0,.71.1.89.2l-.14.43c-.13-.07-.4-.19-.77-.19-.55,0-.76.33-.76.61,0,.38.25.56.8.78.68.26,1.03.59,1.03,1.19,0,.62-.46,1.16-1.42,1.16-.39,0-.82-.11-1.03-.26l.13-.44Z"/>
            <path class="cls-5" d="M98.88,35.19c.25-.04.58-.08,1-.08.52,0,.89.12,1.13.34.22.19.35.49.35.85s-.11.65-.31.86c-.28.29-.73.44-1.23.44-.16,0-.3,0-.42-.04v1.62h-.52v-3.99ZM99.4,37.14c.11.03.26.04.43.04.63,0,1.01-.31,1.01-.86s-.38-.79-.95-.79c-.23,0-.4.02-.49.04v1.57Z"/>
            <path class="cls-5" d="M102.07,35.2c.26-.05.64-.08,1-.08.56,0,.92.1,1.17.33.2.18.32.46.32.77,0,.53-.34.89-.76,1.03v.02c.31.11.5.4.59.82.13.56.23.95.31,1.11h-.54c-.07-.11-.16-.46-.27-.97-.12-.56-.34-.77-.81-.79h-.49v1.75h-.52v-3.99ZM102.59,37.04h.53c.56,0,.91-.31.91-.77,0-.52-.38-.75-.93-.76-.25,0-.43.02-.52.05v1.48Z"/>
            <path class="cls-5" d="M107.39,37.29h-1.57v1.46h1.75v.44h-2.27v-4.04h2.18v.44h-1.66v1.28h1.57v.43Z"/>
            <path class="cls-5" d="M108.18,38.55c.23.14.58.26.94.26.53,0,.85-.28.85-.69,0-.38-.22-.59-.76-.8-.66-.23-1.07-.58-1.07-1.15,0-.63.52-1.1,1.31-1.1.41,0,.71.1.89.2l-.14.43c-.13-.07-.4-.19-.77-.19-.55,0-.76.33-.76.61,0,.38.25.56.8.78.68.26,1.03.59,1.03,1.19,0,.62-.46,1.16-1.42,1.16-.39,0-.82-.11-1.03-.26l.13-.44Z"/>
            <path class="cls-5" d="M111.14,38.55c.23.14.58.26.94.26.53,0,.85-.28.85-.69,0-.38-.22-.59-.76-.8-.66-.23-1.07-.58-1.07-1.15,0-.63.52-1.1,1.31-1.1.41,0,.71.1.89.2l-.14.43c-.13-.07-.4-.19-.77-.19-.55,0-.76.33-.76.61,0,.38.25.56.8.78.68.26,1.03.59,1.03,1.19,0,.62-.46,1.16-1.42,1.16-.39,0-.82-.11-1.03-.26l.13-.44Z"/>
            <path class="cls-5" d="M117.62,37.13c0,1.39-.85,2.13-1.88,2.13s-1.82-.83-1.82-2.05c0-1.28.8-2.12,1.88-2.12s1.82.85,1.82,2.04ZM114.49,37.19c0,.86.47,1.64,1.29,1.64s1.3-.76,1.3-1.68c0-.8-.42-1.64-1.29-1.64s-1.3.8-1.3,1.69Z"/>
          </g>
        </g>
        <g>
          <circle class="cls-2" cx="88.08" cy="30.42" r="1.75"/>
          <g>
            <path class="cls-5" d="M92.9,31.88c.23.14.58.26.94.26.53,0,.85-.28.85-.69,0-.38-.22-.59-.76-.8-.66-.23-1.07-.58-1.07-1.15,0-.63.52-1.1,1.31-1.1.41,0,.71.1.89.2l-.14.43c-.13-.07-.4-.19-.77-.19-.55,0-.76.33-.76.61,0,.38.25.56.8.78.68.26,1.03.59,1.03,1.19,0,.62-.46,1.16-1.42,1.16-.39,0-.82-.11-1.03-.26l.13-.44Z"/>
            <path class="cls-5" d="M96.7,28.92h-1.23v-.44h2.99v.44h-1.24v3.6h-.53v-3.6Z"/>
            <path class="cls-5" d="M101,30.62h-1.57v1.46h1.75v.44h-2.27v-4.04h2.18v.44h-1.66v1.28h1.57v.43Z"/>
            <path class="cls-5" d="M102.52,31.24l-.42,1.27h-.54l1.37-4.04h.63l1.38,4.04h-.56l-.43-1.27h-1.43ZM103.84,30.84l-.4-1.16c-.09-.26-.15-.5-.21-.74h-.01c-.06.24-.13.49-.2.73l-.4,1.17h1.22Z"/>
            <path class="cls-5" d="M108.92,30.74c-.03-.56-.07-1.24-.06-1.75h-.02c-.14.47-.31.98-.51,1.54l-.71,1.96h-.4l-.65-1.92c-.19-.57-.35-1.09-.47-1.57h-.01c-.01.5-.04,1.18-.08,1.79l-.11,1.73h-.5l.28-4.04h.67l.69,1.96c.17.5.31.94.41,1.36h.02c.1-.41.25-.85.43-1.36l.72-1.96h.67l.25,4.04h-.51l-.1-1.77Z"/>
            <path class="cls-5" d="M112.43,30.62h-1.57v1.46h1.75v.44h-2.27v-4.04h2.18v.44h-1.66v1.28h1.57v.43Z"/>
            <path class="cls-5" d="M113.29,28.53c.32-.05.7-.08,1.11-.08.75,0,1.28.17,1.64.5.36.33.57.8.57,1.45s-.2,1.2-.58,1.57c-.38.38-1,.58-1.79.58-.37,0-.68-.02-.95-.05v-3.98ZM113.81,32.1c.13.02.32.03.53.03,1.12,0,1.72-.62,1.72-1.71,0-.95-.53-1.56-1.64-1.56-.27,0-.47.02-.61.05v3.19Z"/>
            <path class="cls-5" d="M121.96,30.74c-.03-.56-.07-1.24-.06-1.75h-.02c-.14.47-.31.98-.51,1.54l-.71,1.96h-.4l-.65-1.92c-.19-.57-.35-1.09-.47-1.57h-.01c-.01.5-.04,1.18-.08,1.79l-.11,1.73h-.5l.28-4.04h.67l.69,1.96c.17.5.31.94.41,1.36h.02c.1-.41.25-.85.43-1.36l.72-1.96h.67l.25,4.04h-.51l-.1-1.77Z"/>
            <path class="cls-5" d="M123.9,28.47v4.04h-.52v-4.04h.52Z"/>
            <path class="cls-5" d="M124.81,28.47h.52v3.6h1.73v.44h-2.25v-4.04Z"/>
            <path class="cls-5" d="M127.64,28.47h.52v1.95h.02c.11-.16.22-.3.32-.43l1.24-1.52h.65l-1.46,1.72,1.58,2.33h-.62l-1.33-1.98-.38.44v1.54h-.52v-4.04Z"/>
          </g>
        </g>
      </g>
    </g>
  </g>
</svg>