<?xml version="1.0" encoding="UTF-8"?>
<svg id="Layer_2" xmlns="http://www.w3.org/2000/svg" viewBox="0 0 74.27 62.88">
  <defs>
    <style>
      .cls-1 {
        fill: none;
      }

      .cls-2 {
        fill: #f9f1e4;
      }

      .cls-3 {
        fill: #fcecc8;
      }

      .cls-4 {
        fill: #6b5338;
      }

      .cls-5 {
        fill: #7d603c;
      }

      .cls-6 {
        fill: #876f59;
      }

      .cls-7 {
        fill: #f1dbb5;
      }

      .cls-8 {
        fill: #603a18;
      }

      .cls-9 {
        fill: #3b2111;
      }

      .cls-10 {
        fill: #eddecd;
      }

      .cls-11 {
        fill: #f1ddb7;
      }

      .cls-12 {
        fill: #fed8b2;
      }

      .cls-13 {
        fill: #f0dfb8;
      }

      .cls-14 {
        fill: #483218;
      }

      .cls-15 {
        fill: #4c2d14;
      }

      .cls-16 {
        fill: #fceeca;
      }

      .cls-17 {
        fill: #f4ecdc;
      }
    </style>
  </defs>
  <g id="Layer_1-2" data-name="Layer_1">
    <rect class="cls-1" width="74.27" height="62.88"/>
    <g>
      <path class="cls-16" d="M4.3,15.8h6.08c2.02-4.89,6.58-6.1,10.71-7.88,2.34-1.01,4.71-1.95,7.1-2.85,2.33-.88,3.72-2.63,4.72-4.78,5.94-2.02,25.3,6.95,28.68,15.47h4.96c1.78,2.8.44,5.82,1.11,8.9,1.07.29,2.32.63,3.68,1,2.34,2.1,2.88,6.56,1.2,9.67-2.36,4.37-5.85,7.44-10.21,9.74-1.25.66-2.34,1.87-3.17,3.06-2.8,4.01-6.66,6.6-11,8.58-.57.26-1.31.17-1.97.17-6.91.01-13.82,0-20.73,0-2.38,0-4.43-.77-6.47-2.1-6.48-4.21-10.3-10.36-12.87-17.36-.98-2.68-.88-5.74-1.81-8.45-1.15-3.36-.77-6.74-.82-10.12-.02-.96.49-1.92.79-3.05ZM49.51,54.93c1.67-1.18,3.33-2.36,5-3.53.66-.66,1.32-1.32,1.98-1.98,2.2-2,4.39-3.99,6.59-5.99,2.11-1.69,4.36-3.23,6.27-5.12,1.91-1.88,3.17-4.27,3.4-7.04.25-3.01-1.08-4.74-4.16-5.43-.66-.26-1.33-.51-1.99-.77v-7.77c-.83-.15-1.54-.38-2.25-.38-19.24-.02-38.47-.02-57.71.02-.82,0-1.64.43-2.49.67.14,2.48.17,4.65.41,6.78.5,4.44.9,8.92,2.9,13.03v-.02c1.21,4.69,3.46,8.78,6.97,12.16.63.63,1.26,1.27,1.89,1.9,1.71,1.16,3.43,2.32,5.14,3.47h-.02c.69.18,1.38.54,2.07.54,7.98.04,15.95.04,23.93,0,.69,0,1.38-.36,2.07-.55h0ZM18.12,14.58c7.52,1.69,12.41-1.8,16.2-7.62v-3.5c-1.43,1.8-2.64,3.33-3.58,4.5-2.52.89-4.57,1.63-6.63,2.32-1.25.42-2.56.67-3.81,1.11-1.4.5-2.49,1.31-2.18,3.19ZM50.96,15.06c1.18-.29,2.11-.52,3.03-.74-1.17-4.55-7.19-9.84-10.82-9.68,2.65,3.32,6.54,5.57,7.79,10.42ZM36.84,14.22l.45.51h4.13c.58-1.14,1.09-2.15,1.74-3.42-1.32-1.31-.45-3.97-3.37-5.12-.17,1.87-.3,3.37-.43,4.82-.86,1.1-1.68,2.16-2.51,3.21Z"/>
      <path class="cls-4" d="M56.49,49.41c-.66.66-1.32,1.32-1.98,1.98-1.67,1.18-3.33,2.36-5,3.53h0c-.23-.05-.45-.09-.68-.14-.45-.13-.9-.38-1.35-.38-8-.02-16-.02-24,0-.45,0-.9.25-1.35.39-.23.04-.46.09-.68.13h.02c-1.71-1.14-3.43-2.3-5.14-3.46-.63-.63-1.26-1.27-1.89-1.9-1.08-1.75-2.2-3.48-3.22-5.26-1.3-2.27-2.51-4.6-3.76-6.9v.02c-.37-2.26-.56-4.58-1.16-6.78-1.08-3.96-1.33-7.97-1.23-12.03,0-.3.23-.59.33-.83,2.97-.72,58.66-.51,60.56.3,0,1.13.06,2.37-.02,3.6-.08,1.26-.28,2.51-.47,4.16h3.14c3.08.69,4.42,2.42,4.16,5.43-.23,2.78-1.5,5.16-3.4,7.04-1.91,1.89-4.17,3.43-6.27,5.12-.62.15-1.29.19-1.84.48-2.29,1.21-3.54,3.35-4.75,5.51ZM61.11,38.99c.63-.7,1.25-1.41,1.88-2.11-.29,1.55-.58,3.1-.96,5.1,3.64-1.58,5.78-3.8,7.38-6.53.55-.93.7-2.09,1.03-3.14.47-3.38-.9-5.19-4.33-3.98-.18.64-.38,1.35-.58,2.05-.35.8-.74,1.58-1.06,2.39-.52,1.36-1,2.74-1.5,4.11-.1-.62-.36-1.27-.27-1.86.58-3.54,1.24-7.08,1.88-10.61.69-1.93.52-3.83.05-5.82H6.5c-.22.42-.41.63-.43.86-.53,4.95.66,9.7,1.72,14.46.08.35.48.63.73.95.13.05.27.08.41.09l-.02-.04c1.11,5.03,3.45,9.41,6.99,13.15.83.79,1.65,1.58,2.48,2.36,2.17,2.14,4.69,3.11,7.83,3.01,5.71-.18,11.46-.37,17.15.05,4.75.35,8.12-1.62,11.16-4.76,1.04-1.07,1.98-2.22,2.96-3.34,2.06-1.65,3.11-3.87,3.62-6.39Z"/>
      <path class="cls-7" d="M18.12,14.58c-.31-1.88.78-2.69,2.18-3.19,1.24-.44,2.55-.69,3.81-1.11,2.07-.68,4.11-1.43,6.63-2.32.93-1.17,2.15-2.7,3.58-4.5v3.5c-3.79,5.81-8.67,9.31-16.2,7.62Z"/>
      <path class="cls-5" d="M68.59,25.83h-3.14c.19-1.65.4-2.9.47-4.16.07-1.23.02-2.46.02-3.6-1.9-.81-57.58-1.01-60.56-.3-.1.24-.33.53-.33.83-.1,4.06.15,8.07,1.23,12.03.6,2.2.79,4.51,1.17,6.78-2-4.11-2.4-8.59-2.9-13.03-.24-2.14-.27-4.3-.41-6.78.86-.24,1.67-.67,2.49-.67,19.24-.04,38.47-.04,57.71-.02.71,0,1.42.23,2.25.38v7.77c.66.26,1.33.51,1.99.77Z"/>
      <path class="cls-13" d="M50.96,15.06c-1.25-4.85-5.14-7.1-7.79-10.42,3.63-.16,9.65,5.13,10.82,9.68-.93.23-1.85.45-3.03.74Z"/>
      <path class="cls-11" d="M36.84,14.22c.82-1.06,1.65-2.11,2.51-3.21.13-1.45.27-2.95.43-4.82,2.92,1.15,2.05,3.81,3.37,5.12-.65,1.27-1.16,2.29-1.74,3.42h-4.13l-.45-.51Z"/>
      <path class="cls-5" d="M21.44,54.92c.23-.04.46-.09.68-.13,8.9,0,17.8,0,26.7,0,.23.05.45.09.68.14-.69.19-1.38.54-2.07.55-7.98.04-15.95.04-23.93,0-.69,0-1.38-.36-2.07-.55Z"/>
      <path class="cls-5" d="M7.44,37.4c1.25,2.3,2.46,4.62,3.76,6.9,1.02,1.79,2.14,3.51,3.22,5.26-3.51-3.38-5.76-7.47-6.98-12.16Z"/>
      <path class="cls-5" d="M56.49,49.41c1.21-2.16,2.47-4.29,4.75-5.51.54-.29,1.22-.33,1.84-.48-2.2,2-4.39,3.99-6.59,5.99Z"/>
      <path class="cls-5" d="M49.51,54.93c1.67-1.18,3.33-2.36,5-3.53-1.67,1.18-3.33,2.36-5,3.53Z"/>
      <path class="cls-5" d="M16.31,51.46c1.71,1.16,3.43,2.32,5.14,3.47-1.71-1.16-3.43-2.32-5.14-3.47Z"/>
      <path class="cls-10" d="M57.48,45.38c-.98,1.12-1.93,2.27-2.96,3.34-3.05,3.14-6.41,5.11-11.16,4.76-5.69-.42-11.43-.23-17.15-.05-3.14.1-5.66-.87-7.83-3.01h2.12c-1.35-1.28-2.68-2.35-3.79-3.61-2.09-2.37-3.9-4.94-4.63-8.1.49.64,1.07,1.23,1.44,1.92,1.7,3.19,3.93,5.93,6.7,8.25,1.7,1.43,3.54,2.22,5.89,2.17,5.89-.14,11.79-.27,17.67.02,3.5.17,6.08-1.17,8.43-3.4.96-.91,1.85-1.91,2.6-2.99,1.44-2.09,2.75-4.26,4.12-6.39-.06.92-.13,1.85-.19,2.82.31-.09.55-.15.78-.21-.68,1.5-1.35,3-2.03,4.5Z"/>
      <path class="cls-5" d="M8.52,34.86c-.25-.31-.66-.6-.73-.95-1.06-4.76-2.25-9.51-1.72-14.46.02-.23.21-.44.43-.86h58.14c.47,1.99.63,3.89-.05,5.82l-.14-1.61c-.13-.98-.26-1.97-.39-2.95-.67-.29-1.33-.83-2-.83-7.48.03-14.95.2-22.43.22-5.23.02-10.46-.17-15.69-.21-4.97-.05-9.95-.06-14.92-.03-.78,0-1.56.26-2.6.45.13,1.86.14,3.51.38,5.12.51,3.44,1.14,6.86,1.72,10.28Z"/>
      <path class="cls-17" d="M12.09,38.71c.73,3.16,2.54,5.73,4.63,8.1,1.11,1.26,2.44,2.34,3.79,3.61h-2.12c-.83-.79-1.65-1.58-2.48-2.36-.23-.59-.34-1.26-.7-1.74-2.41-3.24-4.32-6.72-5.39-10.64-.09-.31-.59-.51-.9-.76l.02.04c-.2-1.62-.42-3.24-.59-4.86-.36-3.3-.7-6.61-1.07-10.18h2.72c.38.26.77.52,1.14.78-.36.33-.71.65-.87.8.08,1.47.15,2.69.22,3.9-.8,1.92-.94,3.78.5,5.5.11.73.23,1.46.32,2.08-.34,1-.65,1.92-.96,2.84.6.76,1.11,1.4,1.61,2.04.04.29.09.57.13.86Z"/>
      <path class="cls-10" d="M9.98,19.91h-2.72c.38,3.57.71,6.88,1.07,10.18.18,1.62.39,3.24.59,4.86-.14,0-.28-.04-.41-.09-.58-3.43-1.21-6.85-1.72-10.28-.24-1.62-.25-3.27-.38-5.12,1.04-.19,1.82-.44,2.6-.45,4.97-.02,9.95-.01,14.92.03,5.23.05,10.46.23,15.69.21,7.48-.02,14.95-.19,22.43-.22.66,0,1.33.54,2,.83-.2.02-.39.04-.59.06-.66,0-1.32,0-1.98,0H9.98Z"/>
      <path class="cls-6" d="M65.53,30.39c-.54,2.33-1.06,4.66-1.61,6.98-.22.94-.5,1.86-.87,3.25,3.87-2.02,5.69-5.11,7.39-8.31-.33,1.05-.49,2.21-1.03,3.14-1.6,2.73-3.74,4.95-7.38,6.53.38-2.01.67-3.56.96-5.1h-.01c.5-1.36.97-2.74,1.5-4.1.31-.81.7-1.6,1.06-2.39Z"/>
      <path class="cls-14" d="M48.83,54.79c-8.9,0-17.8,0-26.7,0,.45-.13.9-.39,1.35-.39,8-.02,16-.02,24,0,.45,0,.9.25,1.35.38Z"/>
      <path class="cls-10" d="M8.91,34.91c.31.25.81.45.9.76,1.08,3.92,2.99,7.4,5.39,10.64.36.49.48,1.16.7,1.74-3.54-3.74-5.89-8.11-6.99-13.15Z"/>
      <path class="cls-6" d="M64.44,22.81l.14,1.61c-.64,3.54-1.3,7.07-1.88,10.61-.1.59.17,1.24.27,1.86,0,0,.01-.01.01-.01-.63.7-1.25,1.41-1.88,2.11,0,0-.17-.15-.17-.15.7-2.65,1.39-5.31,2.09-7.96.08-.14.08-.27,0-.41.47-2.55.95-5.1,1.42-7.66Z"/>
      <path class="cls-6" d="M57.48,45.38c.68-1.5,1.35-3,2.03-4.5.32-.68.64-1.36.96-2.04l.23.04.23-.04.17.15c-.51,2.53-1.56,4.75-3.62,6.39Z"/>
      <path class="cls-8" d="M12.09,38.71c-.04-.29-.09-.57-.13-.86-.06-.96-.13-1.93-.19-2.87,1.57-.82,44.16-1.09,47.49-.3.07.53.15,1.1.23,1.66-.19.65-.37,1.29-.56,1.94-1.37,2.14-2.68,4.31-4.12,6.39-.75,1.08-1.64,2.09-2.6,2.99-2.35,2.22-4.93,3.57-8.43,3.4-5.88-.29-11.78-.16-17.67-.02-2.34.06-4.18-.74-5.89-2.17-2.76-2.32-5-5.06-6.7-8.25-.37-.7-.95-1.29-1.44-1.92ZM15.97,42.4c.31,1.55,1.56.96,2.43.96,10.4.04,20.8.03,31.2.02h4.76c.26-.24.68-.62,1.11-1.01,1.07-2.15,2.15-4.3,3.37-6.75H12.31c.93,2.02,1.68,3.74,2.52,5.41.26.52.76.92,1.15,1.37Z"/>
      <path class="cls-2" d="M58.93,38.28c.19-.65.37-1.29.56-1.94.15-.66.39-1.31.43-1.97.09-1.16.06-2.32.07-3.48.33-.63.96-1.27.94-1.89-.1-2.77-.38-5.53-.59-8.31.37-.25.76-.51,1.15-.78.66,0,1.32,0,1.98,0,.07.53.23,1.07.2,1.6-.19,2.99-.42,5.97-.64,8.95.07.14.07.28,0,.41-.85,2.65-1.7,5.31-2.55,7.96-.32.68-.64,1.36-.96,2.04-.23.06-.47.13-.78.21.07-.97.13-1.89.19-2.82Z"/>
      <path class="cls-3" d="M63.03,30.47c.22-2.98.45-5.97.64-8.95.03-.53-.13-1.06-.2-1.6.2-.02.39-.04.59-.06.13.98.26,1.97.39,2.95-.47,2.55-.95,5.1-1.42,7.66Z"/>
      <path class="cls-12" d="M59.99,30.88c-.02,1.16.01,2.33-.07,3.48-.05.66-.28,1.32-.43,1.97-.08-.57-.16-1.13-.23-1.66-3.33-.79-45.92-.52-47.49.3.06.94.13,1.9.19,2.87-.5-.64-1.01-1.28-1.61-2.04.31-.93.62-1.85.96-2.84-.1-.63-.21-1.35-.32-2.08,0-1.67,0-3.33,0-5,.96-.16,1.93-.49,2.89-.47,5.62.11,11.25.4,16.87.45,8.97.08,17.93.02,26.9.02h2.83c-.19,1.93-.34,3.47-.49,5.01Z"/>
      <path class="cls-3" d="M59.99,30.88c.15-1.54.3-3.08.49-5.01h-2.83c-8.97,0-17.93.06-26.9-.02-5.62-.05-11.25-.33-16.87-.45-.96-.02-1.93.3-2.89.47-.17-.17-.34-.33-.51-.5-.07-1.21-.14-2.42-.22-3.9.16-.15.51-.47.87-.8-.37-.25-.75-.52-1.14-.78h51.5c-.39.26-.78.53-1.15.78.22,2.78.5,5.54.59,8.31.02.62-.61,1.26-.94,1.89Z"/>
      <path class="cls-10" d="M10.48,25.38c.17.17.34.33.51.5,0,1.67,0,3.33,0,5-1.44-1.72-1.3-3.58-.5-5.5Z"/>
      <path class="cls-10" d="M60.47,38.84c.85-2.65,1.7-5.31,2.55-7.96-.7,2.65-1.39,5.31-2.09,7.96l-.23.04-.23-.04Z"/>
      <path class="cls-9" d="M15.97,42.4c-.39-.45-.89-.85-1.15-1.37-.84-1.67-1.59-3.39-2.52-5.41h46.53c-1.22,2.45-2.3,4.6-3.37,6.75l-39.49.03Z"/>
      <path class="cls-15" d="M15.97,42.4l39.49-.03c-.43.39-.85.78-1.11,1.01h-4.76c-10.4,0-20.8.01-31.2-.02-.86,0-2.11.59-2.43-.96Z"/>
    </g>
  </g>
</svg>