<?xml version="1.0" encoding="UTF-8"?>
<svg id="Layer_2" xmlns="http://www.w3.org/2000/svg" viewBox="0 0 141.09 65.55">
  <defs>
    <style>
      .cls-1 {
        fill: none;
      }

      .cls-2 {
        fill: #fcecc8;
      }

      .cls-3 {
        fill: #fef5e3;
      }

      .cls-4 {
        fill: #f1dbb5;
      }

      .cls-5 {
        fill: #3b2111;
      }

      .cls-6 {
        fill: #231f20;
      }

      .cls-7 {
        fill: #f8f0e2;
      }

      .cls-8 {
        fill: #4c3014;
      }

      .cls-9 {
        fill: #f1ddb7;
      }

      .cls-10 {
        fill: #6b5439;
      }

      .cls-11 {
        fill: #f9e9c7;
      }

      .cls-12 {
        fill: #fed8b2;
      }

      .cls-13 {
        fill: #f0dfb8;
      }

      .cls-14 {
        fill: #f6e9db;
      }

      .cls-15 {
        fill: #f2e0cd;
      }

      .cls-16 {
        fill: #f8e8c6;
      }

      .cls-17 {
        fill: #fceeca;
      }
    </style>
  </defs>
  <g id="Layer_1-2" data-name="Layer_1">
    <g>
      <path class="cls-17" d="M64.71,18.3C61.33,9.78,41.98.81,36.03,2.83c-1.01,2.15-2.39,3.91-4.72,4.78-2.39.9-4.76,1.85-7.1,2.85-4.01,1.72-8.42,2.92-10.52,7.46.28.68-.47,1.3,0,1.55,16.84-.03,33.68-.03,50.52-.02M57.1,16.86c-.93.23-1.85.45-3.03.74-1.25-4.85-5.14-7.1-7.79-10.42,3.64-.16,9.65,5.13,10.82,9.68ZM42.46,13.55c.13-1.45.27-2.95.43-4.82,2.92,1.15,2.05,3.81,3.37,5.12-.65,1.27-1.16,2.29-1.74,3.42h-4.13c-.15-.17-.3-.34-.45-.51.82-1.06,1.65-2.11,2.51-3.21ZM23.41,13.92c1.24-.44,2.55-.69,3.81-1.11,2.07-.68,4.11-1.43,6.63-2.32.93-1.17,2.15-2.7,3.58-4.5v3.5c-3.79,5.81-8.67,9.31-16.2,7.62-.31-1.88.78-2.69,2.18-3.19Z"/>
      <path class="cls-4" d="M21.23,17.12c-.31-1.88.78-2.69,2.18-3.19,1.24-.44,2.55-.69,3.81-1.11,2.07-.68,4.11-1.43,6.63-2.32.93-1.17,2.15-2.7,3.58-4.5v3.5c-3.79,5.81-8.67,9.31-16.2,7.62Z"/>
      <path class="cls-13" d="M54.07,17.6c-1.25-4.85-5.14-7.1-7.79-10.42,3.63-.16,9.65,5.13,10.82,9.68-.93.23-1.85.45-3.03.74Z"/>
      <path class="cls-9" d="M39.95,16.76c.82-1.06,1.65-2.11,2.51-3.21.13-1.45.27-2.95.43-4.82,2.92,1.15,2.05,3.81,3.37,5.12-.65,1.27-1.16,2.29-1.74,3.42h-4.13l-.45-.51Z"/>
      <path class="cls-2" d="M64.83,33.42c.17-1.54.34-3.08.55-5.01h-3.2c-10.14,0-20.28.06-30.42-.02-6.36-.05-12.72-.33-19.08-.45-1.09-.02-2.18.3-3.27.47-.19-.17-.38-.33-.57-.5-.08-1.21-.16-2.42-.25-3.9.18-.15.58-.47.98-.8-.42-.25-.85-.52-1.29-.78h58.24c-.44.26-.88.53-1.3.78.24,2.78.56,5.54.67,8.31.02.62-.69,1.26-1.06,1.89Z"/>
      <path class="cls-5" d="M13.59,47.64c-.48-1.5-1.09-2.81-1.41-4.52-1.03-5.53-1.96-11.2-3.11-17.87h57.46c-1.51,8.09-2.84,15.2-4.16,22.3-5.89.01-5.72,5.88-11.15,7.55-5.83,1.79-17.23-.6-23.56-.59-4.04,0-10.02-6.88-14.07-6.87Z"/>
      <g>
        <path class="cls-3" d="M25.72,54.76h24.5c0-.08.02-.16.02-.24h-24.52c0,.08,0,.16,0,.24Z"/>
        <path class="cls-7" d="M10.74,34.94s0-.01,0-.02v.04s0-.01,0-.02Z"/>
        <path class="cls-15" d="M11.54,28.98c-.57-1.69-.49-4.27-.49-6.58h2.21c16.35,0,32.69,0,49.04,0h2.11c-.19,2.64.18,5.15-.08,7.5-.45,4.09-1.35,7.9-3.05,11.63-.97,2.13-1.47,4.07-2.73,6.07-.04.06-.47.72-.74.65-.35.15-1.09.84-1.43.99-1.43,1.24-2.49,1.1-3.92,2.34-1.4,1.21-3.04,1.52-4.86,1.5-6.39-.06-12.79-.11-19.18,0-2.32.04-4.28-.52-5.88-2.12-1.8-1.81-3.48-3.73-5.21-5.61-.52-.48-1.04-.97-1.56-1.45M10.74,34.96s0,0,0-.01c1.53,7.99,5.33,14.58,12.13,19.21,1.09.74,2.59,1.23,3.91,1.25,7.4.12,14.81.08,22.21.02,1.04,0,2.29-.15,3.07-.74,2.18-1.63,4.43-3.29,6.17-5.34,6.33-7.47,8.15-16.53,8.54-26,.03-.73-.43-1.47-.64-2.17H9.32c-.63,4.74-.1,9.28,1.41,13.76M50.22,54.76h-24.5c0-.08,0-.16,0-.24h24.52c0,.08-.02.16-.02.24Z"/>
        <path class="cls-11" d="M65.13,42.99c.53-.23,1.03-.5,1.51-.8,3.38-2.08,5.69-5.65,6.47-9.91-.37-.56-.81-1.24-1.29-1.97-.25-.03-.5-.07-.75-.1-.74-.1-1.49-.19-2.34-.31-.54,1.95-1.06,3.86-1.59,5.78-.66,2.38-1.32,4.78-2.01,7.3ZM71.59,30.9v4.99c-1.2,1.45-2.79,3.37-4.38,5.29-.19-.1-.37-.21-.56-.31.78-3.16,1.56-6.32,2.43-9.81.89-.06,1.6-.11,2.51-.17Z"/>
        <path class="cls-16" d="M16.81,17.89h-4.5l-4.99.02c-.45.58-.9,1.16-1.59,2.05.18,2.45.37,5.19.57,7.93h0c.19,0,.38-.02.57-.02v-8.84c20.74-.2,41.06-.15,61.78-.02v8.32c.97.24,1.58.42,2.21.53,3.11.56,4.59,2.56,4.18,5.66-.6,4.54-3.38,7.67-6.77,10.35-1.36,1.07-3,1.78-4.41,2.8-.82.59-1.44,1.45-2.14,2.19.2.01.39.02.59.04h0c1.01-.61,2.03-1.2,3.02-1.85,4.44-2.89,8.38-6.13,10.23-11.45,1.49-4.28.35-6.98-4.05-8.4-.44-.14-.81-.53-1.21-.8-.24-2.3-.47-4.61-.75-7.31-.21-.2-.73-.69-1.24-1.18-1.83,0-3.66-.02-5.49-.02h-4.27"/>
        <path class="cls-14" d="M61.7,48.87c-2.62,3.01-5.21,6.09-8.92,7.83-1.16.54-2.49,1.01-3.74,1.03-7.49.1-14.99.08-22.48.03-3.73-.03-6.31-2.47-8.73-4.8-5.33-5.11-8.18-11.6-9.67-18.75-.44-2.11-.87-4.22-1.31-6.33-.19,0-.38.02-.57.02-.05,2.7.63,5.24,1.27,7.85.83,3.39,1.9,6.53,3.51,9.67,2.04,3.98,4.65,7.31,8.02,10.16,2.69,2.27,5.64,3.45,9.24,3.37,6.32-.14,12.65-.1,18.97-.02,5.49.06,9.13-2.6,12.15-6.19.5-.6.99-1.22,1.46-1.86.47-.64.94-1.3,1.4-1.97-.2-.01-.39-.02-.59-.04Z"/>
        <rect class="cls-1" x="2.69" width="74.27" height="65.55"/>
        <path class="cls-10" d="M17.82,52.96c2.43,2.33,5,4.78,8.73,4.8,7.49.05,14.99.06,22.48-.03,1.26-.02,2.58-.49,3.74-1.03,3.71-1.74,6.3-4.81,8.92-7.83.71-.74,1.33-1.61,2.14-2.19,1.41-1.01,3.05-1.72,4.41-2.8,3.39-2.68,6.17-5.81,6.77-10.35.41-3.1-1.07-5.11-4.18-5.66-.62-.11-1.23-.3-2.21-.53v-8.32c-20.72-.12-41.04-.18-61.78.02v8.84c.44,2.11.87,4.22,1.31,6.33,1.48,7.15,4.33,13.64,9.67,18.75ZM58.23,49.34c-1.74,2.06-3.99,3.72-6.17,5.34-.78.58-2.03.73-3.07.74-7.4.06-14.81.1-22.21-.02-1.32-.02-2.82-.51-3.91-1.25-6.8-4.63-10.6-11.22-12.13-19.21-1.51-4.48-2.04-9.03-1.41-13.76h56.81c.22.69.67,1.44.64,2.17-.39,9.47-2.22,18.52-8.54,26ZM68.74,29.91h0c.85.11,1.6.21,2.34.31.25.03.5.06.75.1.48.74.93,1.41,1.29,1.97h0c-.78,4.26-3.09,7.83-6.47,9.91-.48.3-.99.56-1.51.8.69-2.52,1.35-4.92,2.01-7.3.53-1.92,1.05-3.83,1.59-5.78ZM68.36,20.01v8.97c-1.33-2.67.09-5.63-1.02-8.44H8.34c-.02-.18-.04-.36-.06-.53h60.08Z"/>
        <path class="cls-8" d="M67.35,20.55c1.1,2.81-.32,5.76,1.02,8.44v-8.97H8.28c.02.18.04.36.06.53h59.01Z"/>
      </g>
      <g>
        <rect class="cls-1" width="141.09" height="65.55"/>
        <g>
          <circle class="cls-5" cx="88.08" cy="37.09" r="1.75"/>
          <g>
            <path class="cls-6" d="M95.8,39.06c-.19.1-.58.19-1.07.19-1.14,0-2-.72-2-2.04s.86-2.12,2.11-2.12c.5,0,.82.11.96.18l-.13.43c-.2-.1-.48-.17-.82-.17-.95,0-1.58.61-1.58,1.67,0,.99.57,1.62,1.55,1.62.32,0,.64-.07.85-.17l.11.41Z"/>
            <path class="cls-6" d="M96.97,35.15v1.69h1.96v-1.69h.53v4.04h-.53v-1.9h-1.96v1.9h-.52v-4.04h.52Z"/>
            <path class="cls-6" d="M103.82,37.13c0,1.39-.85,2.13-1.88,2.13s-1.82-.83-1.82-2.05c0-1.28.8-2.12,1.88-2.12s1.82.85,1.82,2.04ZM100.68,37.19c0,.86.47,1.64,1.29,1.64s1.3-.76,1.3-1.68c0-.8-.42-1.64-1.29-1.64s-1.3.8-1.3,1.69Z"/>
            <path class="cls-6" d="M107.32,39.06c-.19.1-.58.19-1.07.19-1.14,0-2-.72-2-2.04s.86-2.12,2.11-2.12c.5,0,.82.11.96.18l-.13.43c-.2-.1-.48-.17-.82-.17-.95,0-1.58.61-1.58,1.67,0,.99.57,1.62,1.55,1.62.32,0,.64-.07.85-.17l.11.41Z"/>
            <path class="cls-6" d="M111.3,37.13c0,1.39-.85,2.13-1.88,2.13s-1.82-.83-1.82-2.05c0-1.28.8-2.12,1.88-2.12s1.82.85,1.82,2.04ZM108.17,37.19c0,.86.47,1.64,1.29,1.64s1.29-.76,1.29-1.68c0-.8-.42-1.64-1.29-1.64s-1.3.8-1.3,1.69Z"/>
            <path class="cls-6" d="M111.98,35.15h.52v3.6h1.73v.44h-2.25v-4.04Z"/>
            <path class="cls-6" d="M115.47,37.92l-.42,1.27h-.54l1.37-4.04h.63l1.38,4.04h-.56l-.43-1.27h-1.43ZM116.8,37.51l-.4-1.16c-.09-.26-.15-.5-.21-.74h-.01c-.06.24-.13.49-.2.73l-.4,1.17h1.22Z"/>
            <path class="cls-6" d="M118.79,35.59h-1.23v-.44h2.99v.44h-1.24v3.6h-.53v-3.6Z"/>
            <path class="cls-6" d="M123.1,37.29h-1.57v1.46h1.75v.44h-2.27v-4.04h2.18v.44h-1.66v1.28h1.57v.43Z"/>
          </g>
        </g>
        <g>
          <circle class="cls-12" cx="88.08" cy="30.42" r="1.75"/>
          <g>
            <path class="cls-6" d="M93.63,32.52l-1.03-4.04h.55l.48,2.04c.12.5.23,1.01.3,1.4h.01c.07-.4.19-.88.33-1.4l.54-2.04h.55l.49,2.05c.11.48.22.96.28,1.39h.01c.08-.44.2-.89.32-1.4l.53-2.04h.53l-1.15,4.04h-.55l-.51-2.1c-.13-.52-.21-.91-.26-1.32h-.01c-.07.4-.16.8-.31,1.32l-.58,2.1h-.55Z"/>
            <path class="cls-6" d="M98.57,28.47v1.69h1.96v-1.69h.53v4.04h-.53v-1.9h-1.96v1.9h-.52v-4.04h.52Z"/>
            <path class="cls-6" d="M102.48,28.47v4.04h-.52v-4.04h.52Z"/>
            <path class="cls-6" d="M103.39,28.52c.25-.04.58-.08,1-.08.52,0,.89.12,1.13.34.22.19.35.49.35.85s-.11.65-.31.86c-.28.29-.73.44-1.23.44-.16,0-.3,0-.42-.04v1.62h-.52v-3.99ZM103.91,30.47c.11.03.26.04.43.04.63,0,1.01-.31,1.01-.86s-.38-.79-.95-.79c-.23,0-.4.02-.49.04v1.57Z"/>
            <path class="cls-6" d="M106.58,28.52c.25-.04.58-.08,1-.08.52,0,.89.12,1.13.34.22.19.35.49.35.85s-.11.65-.31.86c-.28.29-.73.44-1.23.44-.16,0-.3,0-.42-.04v1.62h-.52v-3.99ZM107.11,30.47c.11.03.26.04.43.04.63,0,1.01-.31,1.01-.86s-.38-.79-.95-.79c-.23,0-.4.02-.49.04v1.57Z"/>
            <path class="cls-6" d="M111.87,30.62h-1.57v1.46h1.75v.44h-2.27v-4.04h2.18v.44h-1.66v1.28h1.57v.43Z"/>
            <path class="cls-6" d="M112.73,28.53c.32-.05.7-.08,1.11-.08.75,0,1.28.17,1.64.5.36.33.57.8.57,1.45s-.2,1.2-.58,1.57c-.38.38-1,.58-1.79.58-.37,0-.68-.02-.95-.05v-3.98ZM113.25,32.1c.13.02.32.03.53.03,1.12,0,1.72-.62,1.72-1.71,0-.95-.53-1.56-1.64-1.56-.27,0-.47.02-.61.05v3.19Z"/>
            <path class="cls-6" d="M120.82,32.38c-.19.1-.58.19-1.07.19-1.14,0-2-.72-2-2.04s.86-2.12,2.11-2.12c.5,0,.82.11.96.18l-.13.43c-.2-.1-.48-.17-.82-.17-.95,0-1.58.61-1.58,1.67,0,.99.57,1.62,1.55,1.62.32,0,.64-.07.85-.17l.11.41Z"/>
            <path class="cls-6" d="M121.48,28.53c.26-.05.64-.08,1-.08.56,0,.92.1,1.17.33.2.18.32.46.32.77,0,.53-.34.89-.76,1.03v.02c.31.11.5.4.59.82.13.56.23.95.31,1.11h-.54c-.07-.11-.16-.46-.27-.97-.12-.56-.34-.77-.81-.79h-.49v1.75h-.52v-3.99ZM122,30.37h.53c.56,0,.91-.31.91-.77,0-.52-.38-.75-.93-.76-.25,0-.43.02-.52.05v1.48Z"/>
            <path class="cls-6" d="M126.8,30.62h-1.57v1.46h1.75v.44h-2.27v-4.04h2.18v.44h-1.66v1.28h1.57v.43Z"/>
            <path class="cls-6" d="M128.31,31.24l-.42,1.27h-.54l1.37-4.04h.63l1.38,4.04h-.56l-.43-1.27h-1.43ZM129.64,30.84l-.4-1.16c-.09-.26-.15-.5-.21-.74h-.01c-.06.24-.13.49-.2.73l-.4,1.17h1.22Z"/>
            <path class="cls-6" d="M134.71,30.74c-.03-.56-.07-1.24-.06-1.75h-.02c-.14.47-.31.98-.51,1.54l-.71,1.96h-.4l-.65-1.92c-.19-.57-.35-1.09-.47-1.57h-.01c-.01.5-.04,1.18-.08,1.79l-.11,1.73h-.5l.28-4.04h.67l.69,1.96c.17.5.31.94.41,1.36h.02c.1-.41.25-.85.43-1.36l.72-1.96h.67l.25,4.04h-.51l-.1-1.77Z"/>
          </g>
        </g>
      </g>
    </g>
  </g>
</svg>