<?xml version="1.0" encoding="UTF-8"?>
<svg id="Layer_2" xmlns="http://www.w3.org/2000/svg" viewBox="0 0 74.27 62.88">
  <defs>
    <style>
      .cls-1 {
        fill: none;
      }

      .cls-2 {
        fill: #f1e2cf;
      }

      .cls-3 {
        fill: #f5f9f6;
      }

      .cls-4 {
        fill: #e6dfd3;
      }

      .cls-5 {
        fill: #482e17;
      }

      .cls-6 {
        fill: #6b5237;
      }

      .cls-7 {
        fill: #856c54;
      }

      .cls-8 {
        fill: #b4e1e1;
      }

      .cls-9 {
        fill: #ede2d2;
      }

      .cls-10 {
        fill: #f6e9db;
      }

      .cls-11 {
        fill: #603c1a;
      }

      .cls-12 {
        fill: #d7c6b6;
      }
    </style>
  </defs>
  <g id="Layer_1-2" data-name="Layer_1">
    <rect class="cls-1" width="74.27" height="62.88"/>
    <g>
      <path class="cls-4" d="M53.01,53.59c-1.33.83-2.67,1.66-4,2.49-7.71,0-15.42.03-23.13-.01-1.47,0-2.94-.28-4.41-.42-2.97-.82-5.1-2.94-7.12-5.03-4.22-4.35-6.91-9.52-8.53-15.46-1.49-5.46-2.53-10.87-2.28-16.5.04-.87.62-1.72.95-2.59,20.68,0,41.35,0,62.03.01.18.31.36.63.54.94-.04.24-.08.47-.12.71-.96-.37-1.92-1.07-2.87-1.07-19.08-.06-38.16-.06-57.24-.02-.89,0-1.78.44-2.51.63-.38,4.25.72,12.49,2.15,16.9,1.44,5.81,3.87,11.1,8.09,15.45,3.52,3.63,7.3,6.31,12.83,5.88,4.96-.39,9.98-.2,14.97-.05,3.8.12,7.44-.09,10.63-2.45l.02.58Z"/>
      <path class="cls-9" d="M53.01,53.59l-.02-.58c2.33-2.56,4.65-5.14,7.02-7.67.49-.52,1.25-.78,1.85-1.21,2.06-1.51,4.1-3.04,6.14-4.56,1.7-1.29,3.12-2.78,3.54-4.98.33-1.84.65-3.67.98-5.51-.85-2.77-2.01-3.52-5.48-3.58l.03.02c-.05-2.59-.1-5.19-.15-7.78.04-.24.08-.47.12-.71.15,1.46.33,2.91.44,4.37.07.9.01,1.82.01,2.66,1.84.84,3.53,1.62,5.01,2.3,2.21,5.19.39,9.13-2.65,12.86-2.2,2.68-5.11,4.33-8.03,6.03-.74.43-1.29,1.2-1.89,1.84-2.17,2.32-3.69,5.33-6.93,6.51Z"/>
      <path class="cls-9" d="M66.51,16.08c-20.68,0-41.35,0-62.03-.01.78-.16,1.56-.46,2.34-.46,19.12-.03,38.24-.03,57.36,0,.78,0,1.55.31,2.33.48Z"/>
      <path class="cls-10" d="M21.46,55.64c1.47.15,2.94.42,4.41.42,7.71.04,15.42.02,23.13.01-.69.17-1.37.49-2.06.49-7.62.04-15.24.05-22.86-.02-.88,0-1.75-.59-2.62-.91Z"/>
      <path class="cls-6" d="M72.52,29.08c-.33,1.84-.65,3.67-.98,5.51-1.18,1.66-2.36,3.32-3.54,4.98-2.05,1.52-4.08,3.06-6.14,4.56-.6.44-1.36.69-1.85,1.21-2.38,2.52-4.69,5.1-7.02,7.67-3.19,2.37-6.83,2.57-10.63,2.45-4.99-.16-10.01-.34-14.97.05-5.53.43-9.32-2.26-12.83-5.88-4.22-4.36-6.65-9.64-8.09-15.45-.29-2.22-.59-4.45-.88-6.67.15-.48.3-.95.45-1.43.33,1.24.63,2.49,1,3.72.48,1.6,1.03,3.18,1.54,4.77,0,0,0-.03,0-.03.33,1.41.42,2.94,1.04,4.21.98,2.02,2.31,3.88,3.49,5.81,2,2.1,3.91,4.28,6.02,6.27,1.45,1.36,3.11,2.38,5.32,2.36,7.41-.08,14.83.02,22.24-.09,1.25-.02,2.62-.5,3.7-1.15,5.91-3.56,9.09-9.21,11.46-15.44,1.69-1.67,1.82-3.77,1.66-5.95h0c.34-.7.89-1.38.99-2.12.28-1.95.42-3.93.52-5.9.08-1.54.37-3.17-1.01-4.4.5-.17.99-.34,1.49-.5.14,1.87.43,3.75.35,5.62-.05,1.17-.32,2.14,1.26,2.27l-.03-.02c2.2.62,4.09,1.73,5.48,3.58ZM62.61,40.66c4.58-.71,8.91-7.72,7.39-12.51-1.1-.2-2.4-.44-3.68-.68-1.31,4.65-2.51,8.91-3.71,13.18Z"/>
      <path class="cls-7" d="M5.57,27.5c.29,2.22.59,4.45.88,6.67-1.43-4.41-2.53-12.65-2.15-16.9.74-.19,1.62-.63,2.51-.63,19.08-.04,38.16-.05,57.24.02.96,0,1.92.7,2.87,1.07.05,2.59.1,5.19.15,7.78-1.58-.13-1.31-1.1-1.26-2.27.07-1.87-.22-3.74-.35-5.62-19.82-.01-39.63-.03-59.45-.03-.23,0-.45.15-.95.33.17,3.16.34,6.37.51,9.57Z"/>
      <path class="cls-7" d="M68,39.56c1.18-1.66,2.36-3.32,3.54-4.98-.42,2.2-1.84,3.69-3.54,4.98Z"/>
      <path class="cls-7" d="M72.52,29.08c-1.39-1.86-3.28-2.96-5.48-3.58,3.47.06,4.63.81,5.48,3.58Z"/>
      <path class="cls-2" d="M61.81,36.5c-2.37,6.23-5.54,11.88-11.46,15.44-1.08.65-2.46,1.13-3.7,1.15-7.41.11-14.82.01-22.24.09-2.21.02-3.87-.99-5.32-2.36-2.1-1.98-4.02-4.17-6.02-6.27-.22-.65-.44-1.3-.66-1.95.47.22.94.45,1.59.76v-1.77c.52.81,1.03,1.62,1.55,2.44.55.62,1.08,1.25,1.65,1.85,2.37,2.46,4.65,5.07,8.49,5.06,6.65,0,13.3.06,19.94-.06,1.24-.02,2.7-.45,3.66-1.2,2.2-1.71,4.16-3.74,6.22-5.64.5-.81,1-1.63,1.5-2.44.09.44.18.88.36,1.76,4.93-7.24,5.59-15.15,6.31-23.12H7.48c.1,1.56.12,2.94.28,4.32.38,3.36.81,6.7,1.23,10.06-.15-.02-.29-.05-.44-.08v.03c0-.41.02-.83-.05-1.24-.61-3.34-1.3-6.67-1.82-10.02-.2-1.26-.03-2.58-.03-4.04h57.64c0,1.55.09,2.86-.02,4.15-.2,2.39-.53,4.77-.8,7.15,0,0,0-.01,0-.01-.55,1.98-1.11,3.97-1.66,5.95Z"/>
      <path class="cls-7" d="M63.46,30.56c.27-2.38.6-4.76.8-7.15.11-1.29.02-2.6.02-4.15H6.64c0,1.46-.17,2.78.03,4.04.53,3.35,1.22,6.68,1.82,10.02.07.4.04.82.06,1.24-.52-1.59-1.06-3.17-1.54-4.77-.37-1.23-.67-2.48-1-3.72v-7.94h57.96c1.38,1.23,1.09,2.86,1.01,4.4-.1,1.97-.24,3.94-.52,5.9-.11.74-.65,1.43-.99,2.14Z"/>
      <path class="cls-5" d="M63.97,18.13H6.02v7.94c-.15.48-.3.95-.45,1.43-.17-3.2-.34-6.41-.51-9.57.5-.18.73-.33.95-.33,19.82,0,39.63.02,59.45.03-.5.17-.99.34-1.49.5Z"/>
      <path class="cls-12" d="M62.61,40.66c1.2-4.28,2.4-8.54,3.71-13.18,1.28.24,2.57.47,3.68.68,1.52,4.79-2.8,11.8-7.39,12.51ZM69.85,29.06c-.78-.35-1.57-.7-2.87-1.28-1.09,4.04-2.1,7.8-3.1,11.55,3.62-1.95,6.27-6.29,5.97-10.27Z"/>
      <path class="cls-7" d="M12.42,42.6c.22.65.44,1.3.66,1.95-1.18-1.93-2.51-3.78-3.49-5.81-.62-1.27-.71-2.8-1.04-4.21.15.03.29.06.44.08,1.14,2.66,2.28,5.33,3.43,7.99Z"/>
      <path class="cls-7" d="M61.81,36.5c.55-1.98,1.11-3.97,1.66-5.95.16,2.18.03,4.28-1.66,5.95Z"/>
      <path class="cls-8" d="M15.55,44.03c-.52-.81-1.03-1.62-1.55-2.44-1.23-4.11-2.6-8.18-3.62-12.35-.5-2.03-.34-4.22-.5-6.51,1.21-.06,2.02-.13,2.83-.14,4.08-.01,8.17,0,12.25,0,11.08,0,22.16,0,33.25-.01,1.37,0,2.71-.05,3.24,1.68-.39,2.57-.57,5.23-1.25,7.77-.86,3.25-2.12,6.39-3.21,9.57-.5.81-1,1.63-1.5,2.44.09-.53.18-1.05.28-1.67H15.23c.14.73.23,1.2.32,1.67Z"/>
      <path class="cls-11" d="M15.55,44.03c-.09-.47-.18-.94-.32-1.67h40.56c-.1.62-.19,1.15-.28,1.67-2.06,1.9-4.01,3.93-6.22,5.64-.96.75-2.42,1.18-3.66,1.2-6.65.12-13.29.06-19.94.06-3.84,0-6.12-2.6-8.49-5.06-.57-.59-1.1-1.23-1.65-1.85Z"/>
      <path class="cls-3" d="M57.01,41.59c1.09-3.19,2.35-6.33,3.21-9.57.67-2.53.85-5.2,1.25-7.77-.53-1.73-1.87-1.68-3.24-1.68-11.08.01-22.16,0-33.25.01-4.08,0-8.17,0-12.25,0-.81,0-1.62.08-2.83.14.15,2.29,0,4.48.5,6.51,1.02,4.16,2.39,8.24,3.62,12.35v1.77c-.65-.31-1.12-.53-1.59-.76-1.14-2.66-2.28-5.33-3.43-7.99-.41-3.35-.85-6.7-1.23-10.06-.15-1.37-.18-2.76-.28-4.32h56.2c-.72,7.97-1.38,15.87-6.31,23.12-.18-.88-.27-1.32-.36-1.76Z"/>
    </g>
  </g>
</svg>