<?xml version="1.0" encoding="UTF-8"?>
<svg id="Layer_2" xmlns="http://www.w3.org/2000/svg" viewBox="0 0 55.94 38.93">
  <defs>
    <style>
      .cls-1 {
        fill: #492e17;
      }

      .cls-2 {
        fill: #685036;
      }

      .cls-3 {
        fill: #61462c;
      }

      .cls-4 {
        fill: #f4e3d0;
      }

      .cls-5 {
        fill: #fff;
      }

      .cls-6 {
        fill: #80674d;
      }

      .cls-7 {
        fill: #fffffd;
      }

      .cls-8 {
        fill: #613b18;
      }

      .cls-9 {
        fill: #f8eee3;
      }

      .cls-10 {
        fill: #755b40;
      }
    </style>
  </defs>
  <g id="Layer_1-2" data-name="Layer_1">
    <path class="cls-5" d="M.61,0C.37.66.21.97.15,1.28.07,1.77.01,2.27,0,2.77c-.07,6.51.29,12.96,2.1,19.27,1.77,6.19,4.88,11.42,10.34,15.07,1.69,1.13,3.44,1.86,5.56,1.82,4.66-.09,9.33.02,13.99-.06,1.12-.02,2.34-.25,3.34-.73,3.78-1.8,6.67-4.63,8.79-8.21.99-1.67,2.25-2.96,3.86-4.09,3.44-2.43,6.24-5.45,7.52-9.63,1.18-3.84-.09-6.35-3.86-7.53-.77-.24-1.52-.54-2.17-.77-.22-2.85-.42-5.43-.61-7.89H.61Z"/>
    <path class="cls-6" d="M.61,0h48.26c.19,2.46.39,5.04.61,7.89.65.23,1.4.53,2.17.77,3.77,1.18,5.04,3.7,3.86,7.53-1.28,4.18-4.08,7.21-7.52,9.63-1.61,1.14-2.87,2.42-3.86,4.09-2.12,3.58-5.02,6.41-8.79,8.21-1.01.48-2.22.71-3.34.73-4.66.08-9.33-.03-13.99.06-2.12.04-3.87-.69-5.56-1.82-5.46-3.65-8.57-8.88-10.34-15.07C.3,15.73-.06,9.28,0,2.77c0-.5.06-1,.15-1.48.06-.32.21-.62.46-1.28ZM49.3,9.37c-.32-.77-.84-1.53-.91-2.32-.15-1.88-.09-3.78-.11-5.67-.75-.17-1.5-.49-2.25-.46-1.64.05-3.28.41-4.92.38-3.14-.06-6.27-.38-9.4-.44-4.4-.08-8.8-.08-13.2,0-3.63.07-7.26.37-10.9.44-1.93.04-3.86-.19-6.19-.32v14.79c.31,1.35.64,2.7.94,4.06,1.28,5.87,3.7,11.16,8.41,15.04,1.71,1.41,3.46,3.06,6.09,3,5.32-.11,10.64-.02,15.96-.06.81,0,1.71-.09,2.4-.46,3.41-1.84,6.08-4.45,8.27-7.68,1.22-1.8,2.81-3.41,4.46-4.84,2.76-2.4,5.39-4.83,6.45-8.49.37-.88.73-1.76,1.02-2.45-1.54-4.14-2.19-4.61-6.12-4.52Z"/>
    <path class="cls-2" d="M54.4,16.35c-1.06,3.66-3.69,6.09-6.45,8.49-1.65,1.43-3.24,3.04-4.46,4.84-2.19,3.23-4.86,5.84-8.27,7.68-.68.37-1.59.45-2.4.46-5.32.04-10.64-.06-15.96.06-2.63.06-4.38-1.59-6.09-3-4.71-3.88-7.13-9.17-8.41-15.04-.3-1.36-.63-2.7-.94-4.06.16-1.83.31-3.66.47-5.48h.5s0,.01,0,.01c-.46,7.3,1.34,14.03,5.54,19.99,1.26,1.79,3.31,3.02,5,4.51,1.98,1.37,4.15,1.81,6.56,1.73,3.97-.14,7.94,0,11.91-.08,1.29-.03,2.57-.42,3.85-.65.68-.21,1.51-.24,2-.66,1.43-1.25,2.95-2.49,4.01-4.03,1.93-2.81,4.18-5.56,4.07-9.3l-.02.02c.35-.56.85-1.09,1.02-1.7.28-1.07.36-2.19.52-3.29.02-.32.04-.64.05-.97v7.89c2.32.21,3.29-1.96,4.46-3.55,1.19-1.61,2-3.5,2.97-5.26.02.43.05.92.07,1.41Z"/>
    <path class="cls-3" d="M1.9,10.29c-.16,1.83-.31,3.66-.47,5.48V.98c2.33.13,4.26.36,6.19.32,3.63-.07,7.26-.37,10.9-.44,4.4-.08,8.8-.08,13.2,0,3.14.06,6.27.38,9.4.44,1.64.03,3.27-.34,4.92-.38.74-.02,1.5.3,2.25.46-.31.16-.63.32-.94.48-14.45-.03-28.9-.05-43.34-.06-.62,0-1.24.23-2.09.41v8.08Z"/>
    <path class="cls-10" d="M54.4,16.35c-.03-.49-.05-.98-.07-1.41-.97,1.76-1.78,3.65-2.97,5.26-1.17,1.58-2.14,3.76-4.46,3.55v-7.89c.16-1.47.41-2.93.45-4.4.08-3.06.04-6.12.05-9.18.15.86.42,1.72.44,2.58.05,2.99.02,5.98.02,8.97.13,0,.25,0,.38,0,.06-.97.12-1.94.18-2.91.08.03.15.06.23.09.22-.55.44-1.1.67-1.65,3.93-.08,4.58.38,6.12,4.52-.29.69-.65,1.57-1.02,2.45ZM47.59,22.42c.2.08.41.15.61.23,2.85-2.84,5.65-5.7,5.1-10.17-1.25-1.3-2.37-2.21-4.06-1.22-.55,3.75-1.1,7.46-1.65,11.17Z"/>
    <path class="cls-1" d="M49.3,9.37c-.22.55-.44,1.1-.67,1.65-.08-.03-.15-.06-.23-.09-.06.97-.12,1.94-.18,2.91-.13,0-.25,0-.38,0,0-2.99.03-5.98-.02-8.97-.02-.86-.28-1.72-.44-2.58-.02-.14-.04-.28-.06-.42.31-.16.63-.32.94-.48.02,1.89-.04,3.79.11,5.67.06.79.59,1.55.91,2.32Z"/>
    <path class="cls-4" d="M35.25,35.79c-1.28.23-2.56.62-3.85.65-3.97.09-7.94-.06-11.91.08-2.41.09-4.58-.35-6.56-1.73-.14-.2-.25-.43-.44-.58-5.56-4.66-8.24-10.79-9.15-17.84-.26-2.03-.64-4.05-.96-6.07h0c.07-2.6.15-5.21.22-7.81h44.33c-.21,4.95-.42,9.64-.62,14.33-.34,1.66-.68,3.32-1.02,4.99,0,0,.02-.02.02-.02-1.98,5.66-5.04,10.53-10.08,13.99ZM44.51,19.49c2-5.45,1.29-10.96,1.22-16.46H3.63c-.71,4.63.14,13.46,1.44,16.25,1.02-.32,2-.9,2.99-.91,11.58-.06,23.15-.04,34.76-.04.6.41,1.19.81,1.7,1.16ZM6.96,19.59c0,.76-.11,1.34.02,1.85,1.08,4.31,3.22,7.97,6.73,10.79,1.68,1.35,3.48,2.08,5.72,2,3.9-.14,7.82.05,11.73-.09,1.26-.05,2.65-.46,3.7-1.13,4.11-2.64,6.43-6.62,7.73-11.22.2-.7.03-1.5.03-2.19H6.96Z"/>
    <path class="cls-6" d="M46.32,16.83c.2-4.69.41-9.38.62-14.33H2.62c-.07,2.6-.14,5.2-.22,7.81h-.5V2.21c.86-.17,1.48-.41,2.09-.41,14.45,0,28.9.03,43.34.06.02.14.04.28.06.42-.01,3.06.02,6.12-.05,9.18-.04,1.47-.29,2.93-.45,4.4-.02.32-.04.64-.05.97-.17,0-.35,0-.52,0Z"/>
    <path class="cls-6" d="M2.39,10.3c.32,2.02.7,4.04.96,6.07.91,7.05,3.59,13.18,9.15,17.84.18.15.29.39.44.58-1.69-1.49-3.74-2.72-5-4.51C3.73,24.34,1.93,17.61,2.39,10.3Z"/>
    <path class="cls-10" d="M35.25,35.79c5.03-3.46,8.1-8.33,10.08-13.99.11,3.74-2.14,6.49-4.07,9.3-1.06,1.54-2.58,2.78-4.01,4.03-.49.43-1.32.45-2,.66Z"/>
    <path class="cls-10" d="M46.32,16.83c.17,0,.35,0,.52,0-.16,1.1-.24,2.23-.52,3.29-.16.61-.67,1.14-1.02,1.7.34-1.66.68-3.32,1.02-4.99Z"/>
    <path class="cls-9" d="M47.59,22.42c.55-3.71,1.1-7.42,1.65-11.17,1.69-.99,2.81-.08,4.06,1.22.56,4.47-2.24,7.34-5.1,10.17-.2-.08-.41-.15-.61-.23Z"/>
    <path class="cls-7" d="M44.51,19.49c-.51-.35-1.1-.75-1.7-1.16-11.61,0-23.18-.02-34.76.04-.99,0-1.97.58-2.99.91-1.29-2.79-2.14-11.62-1.44-16.25h42.11c.06,5.5.77,11.01-1.22,16.46Z"/>
    <path class="cls-8" d="M6.96,19.59h35.64c0,.69.17,1.49-.03,2.19-1.3,4.61-3.62,8.58-7.73,11.22-1.05.68-2.45,1.09-3.7,1.13-3.9.14-7.82-.05-11.73.09-2.24.08-4.04-.65-5.72-2-3.51-2.82-5.65-6.48-6.73-10.79-.13-.51-.02-1.09-.02-1.85Z"/>
  </g>
</svg>