<?xml version="1.0" encoding="UTF-8"?>
<svg id="Layer_2" xmlns="http://www.w3.org/2000/svg" viewBox="0 0 74.27 62.88">
  <defs>
    <style>
      .cls-1 {
        fill: none;
      }

      .cls-2 {
        fill: #fef5e3;
      }

      .cls-3 {
        fill: #f8f0e2;
      }

      .cls-4 {
        fill: #4c3014;
      }

      .cls-5 {
        fill: #f9f1e3;
      }

      .cls-6 {
        fill: #fdd8b1;
      }

      .cls-7 {
        fill: #fcf6e6;
      }

      .cls-8 {
        fill: #fff;
      }

      .cls-9 {
        fill: #6b5439;
      }

      .cls-10 {
        fill: #f9e9c7;
      }

      .cls-11 {
        fill: #f6e9db;
      }

      .cls-12 {
        fill: #f2e0cd;
      }

      .cls-13 {
        fill: #f8e8c6;
      }

      .cls-14 {
        fill: #5f3a17;
      }
    </style>
  </defs>
  <g id="Layer_1-2" data-name="Layer_1">
    <rect class="cls-1" width="74.27" height="62.88"/>
    <g>
      <path class="cls-8" d="M13.06,41.24l-.17.66c.06-.22.11-.44.17-.66-.16-.67-.32-1.34-.48-2.01.16.67.32,1.34.48,2.01Z"/>
      <path class="cls-8" d="M63.96,39.52c3.38-2.08,5.69-5.65,6.47-9.91h0c-.78,4.26-3.09,7.83-6.47,9.91Z"/>
      <path class="cls-8" d="M66.05,27.23h0c-.54,1.95-1.06,3.86-1.59,5.78.53-1.92,1.05-3.83,1.59-5.78Z"/>
      <path class="cls-13" d="M59.6,46.23h0c1.01-.61,2.03-1.2,3.02-1.85-.99.64-2.01,1.23-3.02,1.85h0Z"/>
      <path class="cls-13" d="M68.79,24.53c-.44-.14-.81-.53-1.21-.8-.24-2.3-.47-4.61-.75-7.31-.21-.2-.73-.69-1.24-1.18-1.83,0-3.66-.02-5.49-.02h-4.27c.66-.48,1.11-.81,1.7-1.24-.99-.77-1.83-1.42-2.62-2.04-1.42-.3-2.79-.58-4.28-.9-1.64-4.65-5.76-5.09-9.72-5.1-4.05,0-7.85,1.22-9.9,5.33-3.52-.43-6.78.23-10.23-.83-3.32-1.02-6.52.77-9.11,3.61.92.35,1.66.62,2.41.9,0,.09,0,.18,0,.27h-4.5l-4.99.02c-.45.58-.9,1.16-1.59,2.05.18,2.45.37,5.19.57,7.93h0c.19,0,.38-.02.57-.02v-8.84c20.74-.2,41.06-.15,61.78-.02v8.32c.97.24,1.58.42,2.21.53,3.11.56,4.59,2.56,4.18,5.66-.6,4.54-3.38,7.67-6.77,10.35-1.36,1.07-3,1.78-4.41,2.8-.82.59-1.44,1.45-2.14,2.19.2.01.39.02.59.04h0c1.01-.61,2.03-1.2,3.02-1.85,4.44-2.89,8.38-6.13,10.23-11.45,1.49-4.28.35-6.98-4.05-8.4Z"/>
      <path class="cls-11" d="M58.2,48.2c.47-.64.94-1.3,1.4-1.97h0c-.46.67-.92,1.33-1.4,1.97Z"/>
      <path class="cls-11" d="M58.2,48.2c-.47.64-.96,1.27-1.46,1.86.5-.6.99-1.22,1.46-1.86Z"/>
      <path class="cls-11" d="M59.01,46.19c-2.62,3.01-5.21,6.09-8.92,7.83-1.16.54-2.49,1.01-3.74,1.03-7.49.1-14.99.08-22.48.03-3.73-.03-6.31-2.47-8.73-4.8-5.33-5.11-8.18-11.6-9.67-18.75-.44-2.11-.87-4.22-1.31-6.33-.19,0-.38.02-.57.02-.05,2.7.63,5.24,1.27,7.85.83,3.39,1.9,6.53,3.51,9.67,2.04,3.98,4.65,7.31,8.02,10.16,2.69,2.27,5.64,3.45,9.24,3.37,6.32-.14,12.65-.1,18.97-.02,5.49.06,9.13-2.6,12.15-6.19.5-.6.99-1.22,1.46-1.86.47-.64.94-1.3,1.4-1.97-.2-.01-.39-.02-.59-.04Z"/>
      <path class="cls-7" d="M33.3,7.12c.28-.22.55-.43.8-.61-.25.18-.51.39-.8.61Z"/>
      <path class="cls-7" d="M44.73,4.75c2.67,1,4.96,2.37,6.72,4.81-1.76-2.44-4.05-3.81-6.71-4.81-6.98-.03-7.66-.45-10.64,1.76,2.97-2.21,3.65-1.8,10.64-1.76Z"/>
      <path class="cls-7" d="M14.07,14.95c-.74-.28-1.48-.56-2.41-.9,2.59-2.84,5.78-4.63,9.11-3.61,3.44,1.06,6.7.4,10.23.83,2.05-4.11,5.85-5.34,9.9-5.33,3.95,0,8.08.45,9.72,5.1,1.49.31,2.86.6,4.28.9.8.62,1.64,1.27,2.62,2.04-.59.43-1.04.76-1.7,1.24h4.27c-1.45-1.55-2.91-3.1-4.36-4.65-.12.19-.23.38-.35.57-1.35-.5-3.24-.61-3.94-1.57-1.76-2.44-4.05-3.81-6.72-4.81-6.98-.03-7.66-.45-10.64,1.76-.25.18-.51.39-.8.61-.85.67-1.9,1.52-3.26,2.59-2.21,0-4.61.38-6.84-.09-3.77-.79-7.22-.39-10.81,1.6-.82,1.16-1.81,2.58-2.81,3.99h4.5c0-.09,0-.18,0-.27Z"/>
      <path class="cls-7" d="M4.59,15.24c-.72.43-1.44.86-2.01,1.2,0,2.14-.12,3.89.04,5.61.1,1.08.62,2.12.95,3.18-.2-2.74-.39-5.48-.57-7.93.69-.89,1.14-1.47,1.59-2.05Z"/>
      <path class="cls-7" d="M67.57,23.73v-8.08c-.79-.16-1.39-.29-1.99-.42.51.49,1.03.98,1.24,1.18.28,2.7.52,5.01.75,7.31Z"/>
      <path class="cls-9" d="M15.13,50.28c2.43,2.33,5,4.78,8.73,4.8,7.49.05,14.99.06,22.48-.03,1.26-.02,2.58-.49,3.74-1.03,3.71-1.74,6.3-4.81,8.92-7.83.71-.74,1.33-1.61,2.14-2.19,1.41-1.01,3.05-1.72,4.41-2.8,3.39-2.68,6.17-5.81,6.77-10.35.41-3.1-1.07-5.11-4.18-5.66-.62-.11-1.23-.3-2.21-.53v-8.32c-20.72-.12-41.04-.18-61.78.02v8.84c.44,2.11.87,4.22,1.31,6.33,1.48,7.15,4.33,13.64,9.67,18.75ZM55.54,46.67c-1.74,2.06-3.99,3.72-6.17,5.34-.78.58-2.03.73-3.07.74-7.4.06-14.81.1-22.21-.02-1.32-.02-2.82-.51-3.91-1.25-6.8-4.63-10.6-11.22-12.13-19.21-1.51-4.48-2.04-9.03-1.41-13.76h56.81c.22.69.67,1.44.64,2.17-.39,9.47-2.22,18.52-8.54,26ZM66.05,27.23h0c.85.11,1.6.21,2.34.31.25.03.5.06.75.1.48.74.93,1.41,1.29,1.97h0c-.78,4.26-3.09,7.83-6.47,9.91-.48.3-.99.56-1.51.8.69-2.52,1.35-4.92,2.01-7.3.53-1.92,1.05-3.83,1.59-5.78ZM65.67,17.34v8.97c-1.33-2.67.09-5.63-1.02-8.44H5.65c-.02-.18-.04-.36-.06-.53h60.08Z"/>
      <path class="cls-12" d="M63.44,18.51H6.63c-.63,4.74-.1,9.28,1.41,13.76,0,0,0-.02,0-.03,0,0,0,.01,0,.02.05-2.2,0-4.32-.74-6.51-.57-1.69-.11-3.72-.11-6.02h3.38c16.35,0,32.69,0,49.04,0h3.62c-.19,2.64-.3,5-.56,7.34-.45,4.09-1.45,8.07-3.15,11.8-.97,2.13-2.4,4.06-3.66,6.06-.04.06-.51-.14-.77-.22-.35.15-.69.31-1.04.46-1.43,1.24-2.85,2.49-4.29,3.73-1.4,1.21-3.04,1.52-4.86,1.5-6.39-.06-12.79-.11-19.18,0-2.32.04-4.28-.52-5.88-2.12-1.8-1.81-3.48-3.73-5.21-5.61-.52-.48-1.04-.97-1.56-1.45-.06.22-.11.44-.17.66-.15.06-.29.12-.44.18-.62-1.31-1.26-2.62-1.86-3.95-.87-1.95-1.7-3.91-2.55-5.86,0,0,0,.01,0,.02,0,0,0,0,0-.01,1.53,7.99,5.33,14.58,12.13,19.21,1.09.74,2.59,1.23,3.91,1.25,7.4.12,14.81.08,22.21.02,1.04,0,2.29-.15,3.07-.74,2.18-1.63,4.43-3.29,6.17-5.34,6.33-7.47,8.15-16.53,8.54-26,.03-.73-.43-1.47-.64-2.17ZM47.53,52.08h-24.5c0-.08,0-.16,0-.24h24.52c0,.08-.02.16-.02.24Z"/>
      <path class="cls-12" d="M8.04,32.25s0,.02,0,.03c0,0,0,0,0,.01v-.04Z"/>
      <path class="cls-4" d="M64.65,17.87c1.1,2.81-.32,5.76,1.02,8.44v-8.97H5.59c.02.18.04.36.06.53h59.01Z"/>
      <path class="cls-10" d="M62.44,40.32c.53-.23,1.03-.5,1.51-.8,3.38-2.08,5.69-5.65,6.47-9.91-.37-.56-.81-1.24-1.29-1.97-.25-.03-.5-.07-.75-.1-.74-.1-1.49-.19-2.34-.31-.54,1.95-1.06,3.86-1.59,5.78-.66,2.38-1.32,4.78-2.01,7.3ZM68.9,28.23v4.99c-1.2,1.45-2.79,3.37-4.38,5.29-.19-.1-.37-.21-.56-.31.78-3.16,1.56-6.32,2.43-9.81.89-.06,1.6-.11,2.51-.17Z"/>
      <path class="cls-10" d="M62.44,40.32c.69-2.52,1.35-4.92,2.01-7.3-.66,2.38-1.32,4.78-2.01,7.3Z"/>
      <path class="cls-10" d="M66.05,27.23h0c.85.11,1.6.21,2.34.31-.74-.1-1.49-.19-2.34-.31Z"/>
      <path class="cls-10" d="M70.43,29.61h0c-.37-.56-.81-1.24-1.29-1.97-.25-.03-.5-.07-.75-.1.25.03.5.06.75.1.48.74.93,1.41,1.29,1.97Z"/>
      <path class="cls-14" d="M57.62,37.28c.1-.72.62-1.38.96-2.06.38-2.15,1.59-4.22.66-6.61-.38-.12-.76-.34-1.14-.35-7.53-.03-15.07-.03-22.6-.03-4.87,0-9.74-.06-14.6.02-3.6.06-7.2.32-10.8.49.49,2,.98,4,1.48,6,.49.39.98.79,1.68,1.36-.22,1.05-.45,2.09-.67,3.14.16.67.32,1.34.48,2.01.52.48,1.04.97,1.56,1.45-.33-.9-.66-1.8-1.1-3.01h42.9c.44,2.42-1.95,3.56-2.38,5.51.35-.15.69-.31,1.04-.46.83-1.33,1.66-2.66,2.49-4,0-1.15-.12-2.32.04-3.45Z"/>
      <path class="cls-10" d="M10.1,28.74c3.6-.17,7.2-.43,10.8-.49,4.87-.09,9.73-.02,14.6-.02,7.53,0,15.07,0,22.6.03.38,0,.76.23,1.14.35.93,2.39-.29,4.46-.66,6.61v.52c.5-.64,1-1.29,1.24-1.6.27-3.9.61-7.4.7-10.91.03-1.15-.59-2.33-.92-3.49-16.35,0-32.69,0-49.04,0-.01,1.03.02,2.07-.04,3.1-.12,1.97-.28,3.94-.43,5.91Z"/>
      <path class="cls-6" d="M56.43,39.68H13.53c.44,1.21.77,2.11,1.1,3.01,1.73,1.88,3.41,3.8,5.21,5.61,1.6,1.6,3.56,2.16,5.88,2.12,6.39-.12,12.79-.07,19.18,0,1.82.02,3.46-.29,4.86-1.5,1.43-1.24,2.86-2.48,4.29-3.73.44-1.95,2.82-3.08,2.38-5.51Z"/>
      <path class="cls-3" d="M12.45,42.08c.15-.06.29-.12.44-.18l.17-.66c-.16-.67-.32-1.34-.48-2.01-.34-1.5-.67-3-1.01-4.5-.49-2-.98-4-1.48-6,.15-1.97.31-3.94.43-5.91.06-1.03.03-2.07.04-3.1h-3.38c0,2.3-.46,4.34.11,6.02.74,2.19.79,4.31.74,6.51.85,1.96,1.68,3.92,2.55,5.86.59,1.33,1.23,2.63,1.86,3.95Z"/>
      <path class="cls-3" d="M8.05,32.27s0-.01,0-.02v.04s0-.01,0-.02Z"/>
      <path class="cls-5" d="M59.82,34.13c-.25.32-.74.96-1.23,1.6-.34,1.66-.67,3.33-1.01,4.99-.83,1.33-1.66,2.66-2.49,4,.27.08.73.28.77.22,1.26-2,2.69-3.92,3.66-6.06,1.7-3.73,2.7-7.71,3.15-11.8.26-2.34.36-4.71.56-7.34h-3.62c.32,1.16.95,2.34.92,3.49-.09,3.51-.43,7.01-.7,10.91Z"/>
      <path class="cls-2" d="M23.03,52.08h24.5c0-.08.02-.16.02-.24h-24.52c0,.08,0,.16,0,.24Z"/>
      <path class="cls-12" d="M57.58,40.72c.34-1.66.67-3.33,1.01-4.99v-.52c-.34.68-.86,1.34-.97,2.06-.16,1.13-.04,2.3-.04,3.45Z"/>
      <path class="cls-12" d="M11.57,34.73c.34,1.5.67,3,1.01,4.5.22-1.05.45-2.09.67-3.14-.7-.57-1.19-.96-1.68-1.36Z"/>
    </g>
  </g>
</svg>