<?xml version="1.0" encoding="UTF-8"?>
<svg id="Layer_2" xmlns="http://www.w3.org/2000/svg" viewBox="0 0 74.27 62.88">
  <defs>
    <style>
      .cls-1 {
        fill: none;
      }

      .cls-2 {
        fill: #fbf3e3;
      }

      .cls-3 {
        fill: #f9f4e4;
      }

      .cls-4 {
        fill: #6c533a;
      }

      .cls-5 {
        fill: #4c3014;
      }

      .cls-6 {
        fill: #f9e4c1;
      }

      .cls-7 {
        fill: #614a2f;
      }

      .cls-8 {
        fill: #fcf5e3;
      }

      .cls-9 {
        fill: #6d5841;
      }

      .cls-10 {
        fill: #fdf8f3;
      }

      .cls-11 {
        fill: #fff;
      }

      .cls-12 {
        fill: #ddcaba;
      }

      .cls-13 {
        fill: #f8e9c6;
      }

      .cls-14 {
        fill: #f0c9a3;
      }

      .cls-15 {
        fill: #90785f;
      }

      .cls-16 {
        fill: #eedbc7;
      }

      .cls-17 {
        fill: #fef8e8;
      }
    </style>
  </defs>
  <g id="Layer_1-2" data-name="Layer_1">
    <rect class="cls-1" width="74.27" height="62.88"/>
    <g>
      <path class="cls-11" d="M7.28,39.67c.48,1,.95,2.01,1.43,3.01,1.76,5.31,5.55,8.94,10.12,11.79,1.48.92,3.35,1.63,5.06,1.67,7.4.18,14.82.15,22.22.02,1.57-.03,3.24-.59,4.67-1.3,3.56-1.76,6.13-4.69,8.51-7.8.57-.75,1.29-1.49,2.1-1.93,5.14-2.81,9.41-6.31,11.27-12.21,1.2-3.78-.43-6.91-4.45-7.78-1.39-1.24-.93-2.91-1.04-4.44-.34-1.49-.69-2.99-1.03-4.48l-5.95-.53c-1.57-1.56-3.14-3.12-4.53-4.5-4.23.37-5.7-2.99-7.85-4.57-7.21-2.74-13.37-2.06-17.74,3.92-1.73-.14-2.96-.26-4.18-.34-1.32-.08-2.7.09-3.96-.21-4.11-.96-7.45.47-10.41,3.14-.85.77-1.56,1.7-2.33,2.55-1.67.16-3.35.31-5.02.47-.15.02-.3.04-.45.05-1.55,1.54-1.6,3.47-1.29,5.42.71,4.44,1.34,8.9,2.34,13.27.39,1.68.36,3.88,2.5,4.77Z"/>
      <path class="cls-13" d="M4.18,16.16c1.67-.16,3.35-.31,5.02-.47h3.98c-.58-.67-.88-1.01-1.18-1.35q1.63-1.92,7.89-3.65c3.55,1.83,7.38.7,11.12,1.01-.29-.37-.57-.75-.86-1.12,1.71-.93,3.43-1.87,5.14-2.8.58-.58,1.56-.74,2.5-1.04,3.99-1.31,7.39.08,10.59,2.3,1.33.92,2.51,2.08,3.89,2.89,1.51.88,3.18,1.48,5.08,2.34-.81.59-1.27.93-1.92,1.41h4.76c1.98.18,3.97.35,5.95.53-20.66-.02-41.32-.04-61.97-.05Z"/>
      <path class="cls-12" d="M4.18,16.16c20.66.02,41.32.04,61.97.05.34,1.49.69,2.99,1.03,4.48-.27,1.16-.54,2.33-.86,3.7.74.29,1.32.52,1.9.75,4.02.87,5.65,3.99,4.45,7.78-1.87,5.9-6.13,9.4-11.27,12.21-.81.44-1.53,1.19-2.1,1.93-2.38,3.11-4.95,6.04-8.51,7.8-1.43.71-3.1,1.27-4.67,1.3-7.41.13-14.82.16-22.22-.02-1.71-.04-3.58-.75-5.06-1.67-4.57-2.84-8.36-6.48-10.12-11.79.31.19.62.39.93.58,2.21,5.03,5.91,8.64,10.7,11.18.98.52,2.18.85,3.29.86,7.65.07,15.29.07,22.94,0,1.1-.01,2.26-.4,3.27-.87,3.23-1.51,5.73-3.94,7.85-6.75,1.32-1.75,2.8-3.15,4.8-4.18,3.85-1.99,6.87-4.96,8.78-8.89,2.36-4.87.72-8.11-4.45-9.02-.16-.03-.3-.13-.79-.36,0-.71.03-1.58,0-2.45-.08-1.7-.19-3.39-.29-5.09-.34-.2-.67-.54-1.02-.56-2.4-.15-4.8-.31-7.2-.32-7.06-.04-14.11-.06-21.17,0-9.96.07-19.91.18-29.86.32-.76.01-1.51.39-2.26.6-.18-.02-.35-.04-.53-.05.02-.48.03-.97.05-1.45.15-.01.3-.03.45-.05Z"/>
      <path class="cls-8" d="M60.2,15.68c-1.49,0-2.99,0-4.76,0,.66-.48,1.12-.82,1.92-1.41-1.9-.86-3.57-1.46-5.08-2.34-1.39-.81-2.57-1.97-3.89-2.89-3.2-2.22-6.6-3.62-10.59-2.3-.93.31-1.92.46-2.5,1.04-1.71.93-3.43,1.87-5.14,2.8.29.37.57.75.86,1.12-3.74-.31-7.57.82-11.12-1.01q-6.26,1.73-7.89,3.65c.3.34.59.68,1.18,1.35h-3.98c.77-.86,1.48-1.78,2.33-2.55,2.96-2.68,6.3-4.1,10.41-3.14,1.27.29,2.64.13,3.96.21,1.23.07,2.45.19,4.18.34,4.37-5.98,10.53-6.66,17.74-3.92,2.15,1.58,3.62,4.94,7.85,4.57,1.39,1.38,2.96,2.94,4.53,4.5Z"/>
      <path class="cls-8" d="M3.72,16.21c-.02.48-.03.97-.05,1.45.09,2.34-.1,4.73.32,7,.93,5.03,2.17,10.01,3.29,15.01-2.15-.88-2.12-3.08-2.5-4.77-1-4.37-1.64-8.83-2.34-13.27-.31-1.95-.26-3.88,1.29-5.42Z"/>
      <path class="cls-15" d="M7.28,39.67c-1.11-5-2.35-9.97-3.29-15.01-.42-2.28-.23-4.66-.32-7l.53.05c.35,3.93.51,7.88,1.15,11.76.26,1.59-.24,3.75,1.83,4.74,0,.83-.21,1.72.03,2.47.71,2.22,1.61,4.39,2.43,6.57-.31-.19-.62-.39-.93-.58-.48-1-.95-2.01-1.43-3.01Z"/>
      <path class="cls-13" d="M68.22,25.14c-.58-.23-1.16-.45-1.9-.75.32-1.37.59-2.53.86-3.7.1,1.54-.36,3.21,1.04,4.44Z"/>
      <path class="cls-4" d="M9.65,43.26c-.82-2.19-1.71-4.35-2.43-6.57-.24-.75-.03-1.64-.03-2.47,0-.18,0-.35.01-.53,1.24,2.98,2.44,5.99,3.77,8.93.3.65,1.09,1.08,1.65,1.61.17.33.35.67.52,1,1.89,2.87,4.34,5.19,7.28,6.92,1.02.6,2.3,1.05,3.47,1.07,7.48.1,14.97.11,22.45,0,1.24-.02,2.6-.53,3.68-1.19,4.3-2.62,7.16-6.58,9.62-10.86.44-.68,1.01-1.31,1.3-2.05,2.49-6.38,3.53-13.05,3.71-19.87.01-.18.03-.36.04-.54.14-.32.29-.64.43-.96.2-.02.39-.04.59-.06.1,1.7.22,3.39.29,5.09.04.87,0,1.74,0,2.45.49.23.63.33.79.36,5.17.91,6.81,4.15,4.45,9.02-1.91,3.94-4.93,6.9-8.78,8.89-1.99,1.03-3.48,2.43-4.8,4.18-2.11,2.81-4.62,5.24-7.85,6.75-1.01.47-2.17.86-3.27.87-7.65.07-15.29.07-22.94,0-1.1-.01-2.31-.34-3.29-.86-4.78-2.53-8.49-6.15-10.7-11.18ZM67.71,36.22c2.77-2.67,3.25-5.39,1.41-8.38-1-.05-2.05-.1-3.39-.17-.56,2.4-1.01,4.65-1.61,6.85-.58,2.12-1.32,4.2-2,6.3.21.08.41.16.62.25,1.97-1.28,3.99-2.51,4.97-4.85h0ZM70.79,33.22c.58-1.58,1.54-3.11,0-4.84v4.84Z"/>
      <path class="cls-9" d="M64.69,18.7c-.01.18-.03.36-.04.54-.95-.2-1.91-.57-2.86-.57-17.72-.04-35.44-.03-53.16-.02-.87,0-1.74.16-3.07.3.23,1.77.42,3.26.61,4.74h0c.34,3.33.68,6.66,1.02,9.98,0,.18,0,.35-.01.53-2.08-.99-1.57-3.15-1.83-4.74-.64-3.88-.8-7.84-1.15-11.76.75-.21,1.5-.59,2.26-.6,9.95-.14,19.91-.26,29.86-.32,7.06-.05,14.11-.03,21.17,0,2.4.01,4.8.17,7.2.32.35.02.68.37,1.02.56-.2.02-.39.04-.59.06-7.32-.01-14.64-.04-21.96-.04-11.98,0-23.96,0-35.94.02-.74,0-1.49.15-2.23.23,1.04.38,2.01.24,2.97.24,18.14-.01,36.27-.01,54.41.01.77,0,1.55.32,2.32.5Z"/>
      <path class="cls-3" d="M13.14,45.22c-.17-.33-.35-.67-.52-1-2.87-4.79-4.52-10.02-5.49-15.49-.3-1.68-.63-3.34-.95-5.02h0c.11-1.21.23-2.42.34-3.62,1.43.07,2.87.14,4.4.21-.29.67-.55,1.1-.67,1.57-.93,3.59-.76,7.26.1,10.76.73,2.95,2.2,5.72,3.35,8.57.32,1.17.65,2.34.97,3.51.84,1,1.68,1.99,2.52,2.99-.35-.06-.78-.01-1.05-.2-1.03-.72-2-1.51-2.99-2.28Z"/>
      <path class="cls-15" d="M6.51,20.1c-.11,1.2-.23,2.4-.34,3.61-.19-1.49-.38-2.97-.61-4.74,1.33-.13,2.2-.3,3.07-.3,17.72-.01,35.44-.02,53.16.02.95,0,1.91.37,2.86.57-.18,6.82-1.22,13.48-3.71,19.87-.29.74-.86,1.37-1.3,2.05.02-.49.04-.98.06-1.47.66-1.86,1.33-3.71,1.99-5.57.51-2.48,1.02-4.95,1.52-7.43.07-.14.08-.28.03-.43.44-2.35,1.12-4.7.12-7.1-18.53,0-36.81,0-55.08.04-.59,0-1.18.58-1.77.89Z"/>
      <path class="cls-16" d="M59.7,39.7c-.02.49-.04.98-.06,1.47-2.46,4.29-5.32,8.24-9.62,10.86-1.08.66-2.44,1.17-3.68,1.19-7.48.11-14.97.09-22.45,0-1.17-.02-2.45-.47-3.47-1.07-2.94-1.74-5.39-4.05-7.28-6.92.99.77,1.97,1.56,2.99,2.28.27.19.69.14,1.05.2,1.84,1.33,3.68,2.65,5.52,3.98-.12.24-.23.48-.44.9h25.68c1.1-.84,2.26-1.72,3.63-2.76-.55-.09-.71-.11-.88-.14,1.5-1.5,3-3,4.5-4.5.64-.44,1.45-.77,1.9-1.36.97-1.3,1.76-2.74,2.62-4.13Z"/>
      <path class="cls-5" d="M64.69,18.7c-.77-.17-1.55-.5-2.32-.5-18.14-.03-36.27-.03-54.41-.01-.97,0-1.93.14-2.97-.24.74-.08,1.49-.23,2.23-.23,11.98-.02,23.96-.02,35.94-.02,7.32,0,14.64.03,21.96.04-.14.32-.29.64-.43.96Z"/>
      <path class="cls-12" d="M67.72,36.21c-.98,2.34-3,3.57-4.97,4.85-.21-.08-.41-.16-.62-.25.67-2.1,1.41-4.17,2-6.3.61-2.21,1.06-4.46,1.61-6.85,1.34.07,2.39.12,3.39.17,1.84,2.99,1.36,5.71-1.41,8.38.18-.61.22-1.32.56-1.82,1.13-1.65,1.13-3.38.63-5.4-.77-.26-1.56-.52-2.36-.79-1.02,3.87-1.96,7.42-2.89,10.97.2.11.4.23.6.34.51-.64.97-1.34,1.56-1.9.57-.54,1.27-.94,1.91-1.4Z"/>
      <path class="cls-15" d="M6.18,23.72c.32,1.67.65,3.34.95,5.02.98,5.47,2.62,10.69,5.49,15.49-.56-.53-1.36-.96-1.65-1.61-1.33-2.94-2.53-5.95-3.77-8.93-.34-3.32-.68-6.64-1.02-9.96Z"/>
      <path class="cls-7" d="M70.79,33.22v-4.84c1.54,1.73.58,3.26,0,4.84Z"/>
      <path class="cls-6" d="M6.51,20.1c.59-.31,1.18-.89,1.77-.89,18.27-.05,36.55-.04,55.08-.04,1,2.4.32,4.75-.12,7.1v-5.89h-3.66l-.23.42c.52.26,1.04.53,1.18.6.78,7.15-1.1,13.36-3.48,19.47-.13.34-.56.57-.86.85.11-.56.22-1.12.35-1.8-1.01.37-2.04.5-1.36,1.79-13.33,0-26.67,0-40,0-.36-.6-.71-1.19-1.37-2.29-.07,1.01-.1,1.41-.13,1.8-1.14-2.85-2.62-5.62-3.35-8.57-.87-3.5-1.04-7.17-.1-10.76.12-.46.38-.89.67-1.57-1.53-.07-2.97-.14-4.4-.21Z"/>
      <path class="cls-14" d="M15.19,41.68c13.33,0,26.67,0,40,0,.17.67.35,1.34.52,2.02-.18.49-.35.98-.53,1.48-1.5,1.5-3,3-4.5,4.5-1.16.68-2.31,1.35-3.47,2.03-8.17,0-16.34-.02-24.51-.03h0c-1.84-1.33-3.68-2.66-5.52-3.99-.84-1-1.68-1.99-2.52-2.99l.53-3.03Z"/>
      <path class="cls-16" d="M15.19,41.68l-.53,3.03c-.32-1.17-.65-2.34-.97-3.51.03-.4.06-.79.13-1.8.65,1.09,1.01,1.69,1.37,2.29Z"/>
      <path class="cls-2" d="M55.18,45.18c.18-.49.35-.98.53-1.48.16-.67.32-1.34.49-2.01.29-.28.72-.5.86-.85,2.38-6.11,4.26-12.32,3.48-19.47-.14-.07-.66-.34-1.18-.6l.23-.42h3.66v5.89c.05.15.04.29-.03.43-.51,2.48-1.02,4.95-1.52,7.43-.66,1.86-1.33,3.71-1.99,5.57-.86,1.38-1.65,2.83-2.62,4.13-.44.59-1.25.92-1.9,1.36Z"/>
      <path class="cls-6" d="M61.69,34.13c.51-2.48,1.02-4.95,1.52-7.43-.51,2.48-1.02,4.95-1.52,7.43Z"/>
      <path class="cls-17" d="M47.21,51.72c1.16-.68,2.31-1.35,3.47-2.03.16.03.33.05.88.14-1.37,1.04-2.53,1.92-3.63,2.76h-25.68c.21-.42.33-.66.44-.9h0c.52.17,1.04.49,1.56.49,7.12.03,14.24.03,21.37,0,.53,0,1.06-.3,1.59-.46Z"/>
      <path class="cls-10" d="M67.72,36.21c-.64.46-1.35.86-1.91,1.4-.59.56-1.04,1.26-1.56,1.9-.2-.11-.4-.23-.6-.34.94-3.55,1.87-7.09,2.89-10.97.8.27,1.59.53,2.36.79.5,2.02.5,3.75-.63,5.4-.34.5-.38,1.21-.56,1.82h0Z"/>
      <path class="cls-16" d="M56.2,41.7c-.16.67-.32,1.34-.49,2.01-.17-.67-.35-1.34-.52-2.02-.69-1.29.35-1.42,1.36-1.79-.13.69-.24,1.24-.35,1.8Z"/>
      <path class="cls-16" d="M47.21,51.72c-.53.16-1.06.46-1.59.46-7.12.03-14.24.03-21.37,0-.52,0-1.04-.32-1.56-.49,8.17,0,16.34.02,24.51.03Z"/>
    </g>
  </g>
</svg>